<svg width="300" height="297" viewBox="0 0 300 297" fill="none" xmlns="http://www.w3.org/2000/svg">
<path d="M205.5 179L253 195L255 238L212 208L205.5 179Z" fill="url(#paint0_linear_9_58)"/>
<path d="M95.5327 182L48.4766 197.856L46 237L99 204.793L95.5327 182Z" fill="url(#paint1_linear_9_58)"/>
<path d="M108 100L80 159L108 173V100Z" fill="url(#paint2_linear_9_58)"/>
<path d="M152 120.5L80 159L108 173L152 120.5Z" fill="url(#paint3_linear_9_58)"/>
<path d="M193 100L221 159L193 173V100Z" fill="url(#paint4_linear_9_58)"/>
<path d="M149 120.5L221 159L193 173L149 120.5Z" fill="url(#paint5_linear_9_58)"/>
<path fill-rule="evenodd" clip-rule="evenodd" d="M0 210.16L105 26L151 52.9503V297L106.5 271.048L106.4 222.275L63.1874 198.491L46 237L0 210.16ZM82.079 157.241L106.296 171.093L106.16 104.66L82.079 157.241Z" fill="#272F33"/>
<path fill-rule="evenodd" clip-rule="evenodd" d="M149 0L193 27L300 211L255 238L237.313 199.309L194 223V272L150.5 297L149.5 53L149.75 52.8503L105 26.0001L149 0ZM194 104.562L218.421 157.983L194 171.978V104.562Z" fill="#BDC4CE"/>
<defs>
<linearGradient id="paint0_linear_9_58" x1="260.277" y1="206.37" x2="55.0512" y2="-13.921" gradientUnits="userSpaceOnUse">
<stop stop-color="#272F33"/>
<stop offset="1" stop-color="white"/>
</linearGradient>
<linearGradient id="paint1_linear_9_58" x1="127.393" y1="192.548" x2="-70.2271" y2="627.963" gradientUnits="userSpaceOnUse">
<stop stop-color="#BDC4CE"/>
<stop offset="1" stop-color="white"/>
</linearGradient>
<linearGradient id="paint2_linear_9_58" x1="123" y1="114" x2="51" y2="164" gradientUnits="userSpaceOnUse">
<stop stop-color="#BDC4CE"/>
<stop offset="1" stop-color="white"/>
</linearGradient>
<linearGradient id="paint3_linear_9_58" x1="190.571" y1="130.569" x2="-53.468" y2="485.037" gradientUnits="userSpaceOnUse">
<stop stop-color="#BDC4CE"/>
<stop offset="1" stop-color="white"/>
</linearGradient>
<linearGradient id="paint4_linear_9_58" x1="223.5" y1="136" x2="28" y2="52.5" gradientUnits="userSpaceOnUse">
<stop stop-color="#272F33"/>
<stop offset="1" stop-color="white"/>
</linearGradient>
<linearGradient id="paint5_linear_9_58" x1="228.5" y1="156" x2="28" y2="52.5" gradientUnits="userSpaceOnUse">
<stop stop-color="#272F33"/>
<stop offset="1" stop-color="white"/>
</linearGradient>
</defs>
</svg>
