<?xml version="1.0" standalone="no"?>
<!DOCTYPE svg PUBLIC "-//W3C//DTD SVG 20010904//EN"
 "http://www.w3.org/TR/2001/REC-SVG-20010904/DTD/svg10.dtd">
<svg version="1.0" xmlns="http://www.w3.org/2000/svg"
 width="2800.000000pt" height="2800.000000pt" viewBox="0 0 2800.000000 2800.000000"
 preserveAspectRatio="xMidYMid meet">
<metadata>
Created by potrace 1.11, written by Peter Selinger 2001-2013
</metadata>
<g transform="translate(0.000000,2800.000000) scale(0.100000,-0.100000)"
fill="#000000" stroke="none">
<path d="M0 14000 l0 -14000 14000 0 14000 0 0 14000 0 14000 -14000 0 -14000
0 0 -14000z m14073 12665 c28 -8 52 -13 55 -10 3 2 14 -1 25 -7 12 -6 28 -12
37 -13 86 -9 149 -48 252 -154 93 -96 108 -114 161 -184 15 -20 35 -37 43 -37
9 0 30 -15 47 -33 18 -18 48 -44 67 -59 19 -14 45 -35 56 -46 12 -11 32 -22
45 -24 15 -2 23 -9 22 -18 -2 -9 11 -21 30 -29 35 -15 190 -170 248 -248 50
-66 129 -182 129 -189 0 -5 40 -64 50 -74 3 -3 23 -32 45 -64 22 -32 57 -82
77 -110 36 -49 104 -159 137 -221 9 -16 19 -31 24 -33 4 -2 7 -11 7 -20 1 -22
25 -54 34 -45 4 4 4 -1 0 -11 -5 -12 -4 -17 3 -13 5 3 9 -4 9 -16 -1 -13 4
-21 12 -19 8 1 10 -2 7 -8 -6 -10 12 -70 22 -70 2 0 18 7 35 16 16 9 27 11 24
5 -4 -6 4 -22 18 -36 13 -13 27 -34 31 -45 3 -11 11 -20 16 -20 5 0 9 -7 9
-15 0 -8 4 -15 10 -15 5 0 26 -35 46 -77 55 -120 78 -163 87 -163 5 0 5 -4 2
-10 -8 -13 25 -61 38 -53 6 3 7 1 3 -6 -6 -10 26 -76 44 -91 4 -3 10 -12 14
-20 3 -8 38 -62 77 -120 38 -58 77 -118 87 -134 9 -15 55 -92 101 -170 106
-179 296 -461 327 -485 13 -10 24 -24 24 -30 0 -5 9 -15 20 -21 11 -6 20 -17
20 -25 0 -8 5 -15 10 -15 6 0 10 -9 10 -21 0 -11 4 -18 9 -14 8 5 24 -10 27
-25 7 -35 161 -270 177 -270 7 0 21 -19 32 -43 11 -23 29 -51 40 -62 12 -11
33 -36 47 -55 14 -19 36 -45 47 -57 12 -13 38 -51 57 -85 44 -77 57 -98 167
-265 48 -73 87 -137 87 -143 0 -5 4 -10 9 -10 5 0 13 -10 17 -22 3 -13 14 -34
24 -48 25 -36 81 -148 136 -275 43 -99 143 -263 194 -319 46 -51 310 -462 310
-482 0 -3 11 -30 25 -60 14 -30 25 -59 25 -64 0 -6 5 -10 11 -10 5 0 8 -4 5
-9 -9 -14 46 -131 58 -124 6 3 6 1 -1 -7 -9 -10 -6 -24 14 -64 53 -107 98
-176 112 -171 8 3 11 0 8 -9 -3 -8 7 -31 24 -52 16 -20 29 -41 29 -46 0 -6 7
-7 16 -4 12 4 15 2 11 -9 -7 -15 83 -154 108 -168 8 -4 15 -16 15 -25 0 -9 11
-30 25 -46 14 -16 25 -32 25 -35 1 -3 19 -26 42 -51 22 -25 37 -39 34 -32 -4
6 -3 12 3 12 15 0 23 -18 11 -25 -12 -7 -2 -28 34 -69 15 -16 26 -33 26 -38 0
-5 4 -6 10 -3 5 3 7 0 4 -9 -3 -8 3 -23 13 -34 18 -19 30 -35 61 -84 20 -33
49 -40 32 -8 -6 11 -7 20 -2 20 5 0 14 -12 20 -26 7 -14 8 -23 2 -19 -19 12
-10 -22 13 -48 87 -99 239 -324 295 -437 26 -53 76 -130 85 -130 4 0 7 -4 7
-9 0 -10 67 -127 83 -146 5 -5 26 -41 47 -80 90 -163 103 -184 111 -179 5 3 6
-2 3 -10 -4 -10 -1 -16 7 -16 7 0 10 -3 6 -6 -3 -4 1 -13 9 -21 8 -8 12 -19 9
-24 -4 -5 -1 -9 4 -9 6 0 10 -3 10 -7 -4 -27 4 -45 25 -53 26 -9 44 -30 27
-30 -6 0 -8 -7 -4 -16 3 -8 13 -14 22 -11 24 6 43 -17 28 -33 -9 -10 -9 -11 3
-8 8 3 15 15 14 26 0 17 2 19 13 11 18 -15 16 -36 -3 -43 -8 -3 -12 -11 -8
-17 4 -8 9 -7 15 2 7 12 9 11 10 -1 1 -8 1 -19 0 -25 -1 -5 5 -2 13 8 11 15
15 15 25 3 8 -10 9 -16 1 -21 -16 -10 -12 -26 8 -23 12 2 17 -3 16 -19 -1 -13
2 -23 6 -23 9 0 34 -89 31 -107 -1 -7 3 -13 9 -13 6 0 8 -4 5 -10 -3 -5 1 -20
9 -32 8 -13 18 -44 21 -70 4 -27 11 -48 16 -48 5 0 7 -11 3 -25 -3 -14 -2 -25
3 -25 5 0 17 -25 27 -55 9 -30 23 -61 31 -69 8 -8 15 -21 15 -29 0 -7 18 -47
40 -88 23 -41 44 -82 47 -91 3 -10 9 -18 14 -18 5 0 9 -7 9 -15 0 -8 5 -15 10
-15 6 0 10 -7 10 -15 0 -8 5 -15 10 -15 6 0 10 -6 10 -13 0 -7 9 -23 20 -35
11 -12 20 -26 20 -32 0 -5 5 -10 11 -10 6 0 9 -9 6 -19 -3 -13 -1 -18 8 -14
16 5 34 -26 27 -46 -3 -10 1 -12 14 -8 18 7 18 6 2 -7 -25 -19 -22 -27 7 -20
20 5 25 2 31 -21 5 -19 9 -23 15 -14 5 9 11 5 21 -17 7 -16 22 -39 33 -50 50
-54 85 -95 85 -101 0 -3 20 -26 45 -51 45 -45 46 -47 41 -99 -4 -54 0 -63 22
-41 10 10 15 10 22 -2 7 -10 10 -11 10 -2 0 31 47 0 48 -33 0 -5 6 -12 14 -15
15 -6 22 -50 8 -50 -6 0 -10 5 -10 10 0 6 -7 10 -15 10 -8 0 -15 -6 -15 -12 1
-18 26 -49 33 -41 4 3 0 11 -8 17 -12 9 -9 11 15 11 31 0 45 -15 71 -77 6 -16
15 -28 21 -28 5 0 7 -4 4 -9 -3 -5 4 -20 15 -35 11 -14 19 -34 17 -44 -1 -9 8
-35 20 -57 19 -31 26 -36 34 -24 7 11 11 11 15 1 2 -7 11 -18 18 -26 8 -7 12
-16 9 -18 -2 -3 2 -11 11 -18 8 -7 15 -9 15 -4 0 5 17 -18 37 -51 20 -33 47
-73 60 -88 13 -16 26 -41 29 -55 6 -25 37 -74 92 -142 28 -35 41 -90 21 -90
-9 -1 -6 -7 8 -19 12 -10 21 -20 20 -22 -1 -3 4 2 11 10 9 11 12 12 12 2 0 -9
8 -11 21 -8 16 4 18 3 9 -8 -9 -10 -6 -15 10 -20 11 -3 18 -10 15 -15 -3 -5 1
-10 7 -13 8 -2 9 -8 4 -13 -5 -5 -11 -4 -13 4 -3 6 -9 10 -14 7 -5 -4 -7 0 -4
7 3 7 -4 19 -15 26 -28 17 -27 -2 4 -69 14 -29 22 -57 19 -62 -4 -6 5 -7 23
-3 18 4 24 3 16 -2 -16 -11 -17 -22 -5 -31 13 -9 43 -54 43 -64 0 -5 -7 -4
-15 3 -24 20 -17 4 11 -27 14 -15 21 -29 16 -31 -5 -1 -7 -14 -4 -29 4 -19 2
-24 -8 -18 -9 6 -11 4 -5 -4 4 -7 15 -11 24 -8 10 2 18 -1 18 -8 0 -7 -5 -11
-11 -9 -14 5 -19 -43 -6 -51 6 -3 10 1 10 9 0 16 46 34 57 22 4 -3 -3 -6 -15
-6 -16 0 -20 -5 -16 -17 5 -15 4 -16 -5 -3 -6 8 -11 10 -11 4 0 -21 14 -24 33
-7 19 17 20 17 15 -3 -3 -12 -2 -27 2 -34 9 -15 40 -6 40 10 0 6 -6 8 -12 5
-7 -4 -6 -1 2 7 22 19 22 42 0 56 -17 10 -19 9 -14 -6 5 -15 4 -15 -6 1 -7 11
-18 16 -29 12 -11 -3 -18 0 -18 9 0 11 6 12 24 5 22 -8 24 -7 18 11 -5 15 -2
20 12 20 13 0 15 -2 5 -9 -10 -6 -7 -12 12 -25 14 -9 26 -23 26 -31 0 -8 5
-15 11 -15 6 0 9 6 6 14 -4 9 3 16 16 20 12 3 24 1 25 -4 2 -6 7 -8 11 -6 4 3
8 -4 8 -15 1 -10 -5 -19 -13 -19 -8 0 -14 -7 -14 -16 0 -14 -3 -14 -15 -4 -13
11 -14 10 -9 -6 4 -10 16 -30 26 -43 25 -32 23 -41 -8 -35 -16 3 -23 1 -19 -6
3 -5 2 -10 -4 -10 -5 0 -18 -3 -28 -6 -16 -6 -16 -5 2 9 11 9 15 17 8 17 -6 0
-19 -8 -29 -17 -16 -17 -16 -18 -1 -21 9 -2 17 -12 17 -23 0 -10 5 -19 11 -19
5 0 8 -4 5 -8 -8 -14 11 -35 27 -29 8 3 17 15 20 27 4 17 3 19 -8 10 -10 -9
-16 -7 -24 8 -8 16 -6 23 11 38 12 11 18 13 14 7 -4 -8 -1 -13 8 -13 8 0 18 9
21 20 6 20 25 28 25 10 0 -5 17 -40 37 -77 21 -37 38 -72 39 -78 0 -5 2 -16 2
-22 1 -7 9 -13 17 -13 9 0 12 -6 9 -15 -4 -8 -1 -15 5 -15 6 0 8 -6 5 -14 -3
-7 2 -16 11 -20 9 -3 13 -10 10 -16 -3 -5 2 -10 12 -11 10 0 13 -3 6 -6 -21
-8 -15 -33 7 -33 11 0 20 -5 20 -11 0 -5 -4 -7 -10 -4 -14 8 -1 -22 27 -68
l24 -39 -23 7 c-22 6 -22 6 2 -10 27 -18 68 -91 57 -102 -4 -3 2 -12 13 -20
11 -8 20 -20 20 -27 0 -6 15 -29 34 -49 18 -20 31 -37 28 -37 -3 0 3 -9 13
-20 10 -11 22 -17 28 -13 5 3 7 1 4 -4 -4 -6 0 -24 8 -41 17 -33 45 -61 45
-44 0 6 -4 14 -10 17 -5 3 -10 14 -10 23 0 11 7 6 19 -15 11 -17 17 -40 14
-52 -4 -15 -1 -21 10 -21 9 0 20 -15 27 -34 6 -19 21 -45 34 -59 13 -14 22
-28 19 -30 -2 -3 4 -4 14 -3 12 0 19 -7 21 -21 2 -13 10 -23 17 -23 8 0 16 -9
20 -19 4 -12 12 -18 20 -14 11 4 12 10 4 24 -5 11 -7 25 -3 32 6 9 4 9 -8 -1
-14 -11 -17 -8 -26 17 -7 19 -7 33 -1 36 5 4 9 1 9 -5 0 -7 6 -10 13 -7 6 2
24 -18 40 -44 31 -54 33 -63 14 -56 -27 10 -39 -7 -26 -36 7 -15 16 -27 21
-27 4 0 8 -9 8 -20 0 -20 14 -27 24 -12 6 9 -16 50 -29 54 -5 2 -9 6 -8 11 2
4 -2 7 -8 7 -5 0 -8 4 -5 8 7 12 42 8 60 -7 12 -10 19 -11 30 -2 11 9 12 7 9
-11 -5 -26 20 -82 31 -70 4 4 14 -1 21 -11 8 -12 15 -14 20 -8 3 6 2 11 -4 11
-6 0 -8 7 -5 15 11 28 25 4 20 -35 -3 -29 1 -45 16 -62 l20 -23 -6 23 c-5 14
-3 22 5 22 7 0 10 -2 7 -5 -3 -3 1 -27 7 -53 10 -39 10 -51 -3 -69 -10 -16
-11 -23 -3 -23 7 0 10 -4 7 -9 -3 -5 17 -33 45 -62 28 -30 46 -44 40 -32 -14
27 -14 53 -1 53 5 0 7 -6 4 -14 -4 -12 19 -30 30 -23 5 2 46 -48 46 -56 0 -3
-7 -7 -15 -9 -10 -2 1 -20 35 -57 53 -58 57 -66 38 -77 -8 -5 -9 -2 -5 10 4
10 3 15 -3 11 -6 -3 -10 -2 -10 3 0 5 -9 12 -19 15 -14 3 -18 1 -14 -9 3 -8 9
-12 14 -9 4 3 13 -4 19 -15 8 -15 8 -20 -2 -21 -10 0 -10 -2 -1 -5 7 -3 26 10
43 28 16 18 27 25 24 16 -3 -10 1 -24 9 -33 20 -19 27 -19 27 0 0 8 2 15 5 15
13 0 57 -47 74 -80 17 -33 17 -40 5 -54 -8 -9 -9 -11 -2 -6 16 13 48 -51 41
-80 -4 -16 2 -23 31 -35 46 -19 56 -19 56 2 0 13 3 14 11 6 7 -7 8 -19 4 -30
-5 -10 -8 -21 -7 -24 0 -3 -6 -6 -14 -6 -8 0 -14 7 -14 16 0 11 -3 10 -15 -5
-14 -19 -15 -19 -21 4 -3 12 -13 22 -21 22 -8 0 -17 9 -20 21 -3 12 -11 18
-19 15 -8 -3 -14 1 -14 10 0 8 -8 18 -17 21 -10 4 -24 13 -32 20 -7 8 -16 11
-20 7 -3 -4 0 -9 7 -11 6 -3 10 -8 7 -13 -3 -5 3 -11 14 -15 11 -3 26 -19 33
-35 7 -17 19 -30 27 -30 8 0 11 -7 9 -18 -6 -21 26 -46 45 -37 7 4 4 0 -5 -8
-22 -18 -23 -27 -2 -27 8 0 12 -4 9 -10 -6 -9 10 -49 24 -60 4 -3 15 -18 25
-34 l19 -29 12 29 c14 34 11 42 -10 24 -12 -10 -15 -10 -16 1 -2 26 3 54 12
66 7 7 6 12 -2 15 -7 2 -14 14 -16 26 -2 17 2 22 17 22 18 0 19 -3 9 -22 -11
-20 -11 -22 3 -10 14 11 20 9 40 -11 25 -27 33 -47 18 -47 -6 0 -10 5 -10 12
0 9 -3 9 -12 -1 -11 -10 -10 -14 5 -22 9 -6 17 -17 17 -26 0 -10 6 -14 20 -10
11 3 20 1 20 -4 0 -5 -7 -9 -15 -9 -18 0 -18 -1 -5 -34 8 -21 7 -26 -6 -26 -9
0 -14 6 -11 13 2 6 1 21 -4 32 -6 17 -8 17 -8 3 -1 -10 -5 -18 -11 -18 -5 0
-10 -7 -10 -16 0 -10 -6 -14 -14 -11 -19 7 -27 -25 -10 -41 17 -16 27 -15 21
1 -3 8 3 13 14 13 12 0 23 -11 30 -33 6 -18 18 -38 27 -44 16 -10 16 -10 0 -5
-10 3 -18 1 -18 -4 0 -6 -3 -9 -7 -9 -5 1 -19 1 -32 0 -20 -1 -22 -3 -10 -17
7 -9 14 -36 15 -60 1 -24 9 -50 18 -59 21 -21 20 -27 -1 -23 -11 2 -18 -3 -18
-12 0 -8 7 -14 16 -12 9 1 19 -4 22 -12 5 -12 0 -14 -24 -9 -28 5 -29 4 -27
-26 1 -17 8 -31 15 -31 7 0 13 -9 13 -20 0 -22 -15 -27 -23 -7 -3 6 -6 3 -6
-9 -1 -22 -41 -66 -41 -46 0 7 -5 12 -12 12 -6 0 -8 -3 -5 -7 4 -3 3 -11 -3
-17 -6 -9 -1 -12 20 -11 15 0 28 2 28 5 -1 18 4 21 17 10 13 -11 14 -10 9 5
-6 15 -4 16 15 5 18 -9 20 -14 10 -26 -7 -8 -8 -14 -3 -13 27 5 34 -2 28 -28
-4 -16 -10 -32 -15 -37 -5 -5 -1 -15 8 -21 22 -16 28 -55 8 -55 -18 0 -20 -20
-2 -21 6 0 2 -4 -10 -9 -19 -8 -21 -13 -13 -41 5 -17 12 -34 16 -38 4 -3 4 2
1 12 -9 24 2 44 13 26 5 -7 4 -24 -2 -38 -6 -18 -6 -27 3 -30 8 -2 7 -6 -2
-12 -12 -7 -11 -14 3 -41 27 -54 29 -68 12 -68 -14 0 -13 -5 4 -33 17 -30 18
-36 5 -61 -8 -15 -13 -35 -11 -44 3 -22 -9 -42 -28 -42 -12 0 -12 4 2 25 19
30 12 33 -13 6 -10 -11 -29 -21 -42 -23 -31 -4 -52 -35 -32 -47 8 -5 9 -11 3
-15 -6 -3 -13 0 -16 6 -6 17 -36 -19 -36 -43 0 -9 -7 -35 -15 -58 -15 -45 -14
-49 8 -26 13 13 16 13 21 0 3 -8 1 -15 -4 -15 -5 0 -7 -6 -4 -14 3 -8 13 -13
22 -10 9 3 6 -1 -7 -8 -20 -10 -25 -10 -29 1 -4 11 -6 11 -13 0 -7 -11 -9 -10
-9 4 0 23 -17 22 -25 -1 -3 -11 -16 -24 -29 -30 -16 -7 -23 -17 -20 -29 3 -12
-4 -22 -21 -30 -16 -7 -23 -7 -18 -1 3 7 1 8 -5 4 -7 -4 -12 -20 -12 -36 0
-20 -4 -28 -13 -24 -7 2 -24 -4 -37 -16 -13 -11 -24 -20 -25 -20 -1 0 1 14 3
31 3 23 1 30 -7 25 -7 -4 -11 -15 -9 -24 3 -20 -23 -82 -35 -82 -4 0 -5 11 -1
24 3 13 1 27 -4 30 -6 4 -8 -2 -5 -14 4 -15 0 -20 -16 -20 -18 0 -19 -3 -11
-26 6 -14 10 -36 10 -50 0 -13 5 -24 11 -24 6 0 9 -8 7 -17 -2 -10 -9 -18 -16
-18 -8 0 -19 -7 -25 -15 -7 -8 -19 -15 -27 -15 -8 0 -14 -6 -12 -14 3 -12 1
-12 -14 0 -16 12 -17 12 -11 -3 8 -22 -12 -35 -25 -17 -10 15 -5 -22 9 -58 6
-16 5 -17 -12 -3 -15 12 -17 12 -10 1 6 -11 4 -13 -8 -8 -9 3 -20 0 -24 -7
-23 -37 -93 -60 -93 -30 0 8 -4 13 -9 9 -5 -3 -12 -1 -16 4 -3 6 -13 7 -22 4
-13 -5 -15 -1 -11 20 6 33 0 35 -11 5 -7 -18 -4 -27 12 -41 15 -12 17 -17 7
-16 -34 3 -60 -2 -60 -12 0 -5 4 -8 9 -5 5 4 12 0 14 -6 4 -10 8 -10 15 1 6 8
12 9 16 3 3 -6 2 -13 -4 -17 -6 -4 -7 -11 -4 -17 4 -6 2 -8 -3 -5 -13 8 -26
-20 -16 -35 3 -7 1 -8 -6 -4 -7 5 -13 -3 -17 -23 -4 -17 -12 -31 -18 -31 -16
-1 -56 -36 -56 -50 0 -26 -35 -71 -52 -67 -10 3 -17 2 -16 -2 0 -3 0 -15 -1
-26 -1 -16 -3 -17 -11 -5 -5 8 -6 17 -2 20 10 7 10 50 1 50 -4 0 -11 -5 -15
-11 -3 -6 -18 -8 -33 -5 -23 6 -24 5 -9 -7 10 -8 15 -17 11 -20 -9 -10 -25 -9
-19 1 2 4 -1 15 -8 24 -12 16 -14 15 -25 -9 -11 -23 -10 -25 3 -13 10 7 16 8
16 2 0 -6 -5 -14 -10 -17 -6 -3 -7 -17 -4 -30 5 -20 3 -23 -16 -18 -19 5 -21
3 -15 -16 5 -15 1 -29 -12 -43 -18 -20 -17 -20 2 -16 11 2 19 10 18 16 -2 7 2
12 8 12 5 0 8 4 5 9 -3 5 4 11 15 14 15 4 20 11 16 21 -4 9 -2 16 3 16 5 0 18
9 28 21 15 16 21 17 25 6 3 -8 0 -23 -6 -34 -30 -51 -54 -82 -59 -78 -3 3 -13
-9 -21 -27 -14 -28 -17 -29 -17 -11 0 19 -5 22 -37 20 -22 -1 -38 -8 -40 -17
-4 -12 -3 -12 5 -2 7 11 10 11 16 -3 3 -9 10 -14 15 -11 5 3 11 -10 13 -30 5
-40 -12 -55 -38 -33 -14 11 -14 13 0 21 9 5 16 16 16 25 0 12 -7 14 -34 10
-29 -5 -34 -3 -29 10 12 32 -17 2 -52 -53 -40 -62 -41 -69 -17 -84 15 -10 15
-11 -4 -7 -17 4 -20 1 -17 -14 3 -11 -1 -21 -11 -25 -9 -3 -14 -10 -11 -14 3
-4 -7 -11 -21 -14 -15 -4 -24 -9 -21 -12 3 -3 -8 -19 -24 -37 -16 -17 -27 -33
-24 -35 2 -2 -5 -14 -16 -25 -11 -12 -36 -46 -57 -77 -20 -30 -59 -86 -87
-124 -30 -43 -45 -71 -37 -74 7 -2 12 -8 12 -13 0 -6 -5 -7 -11 -4 -12 8 -51
-24 -43 -36 3 -5 -1 -9 -8 -9 -8 -1 -5 -7 7 -16 20 -15 20 -16 -4 -12 -15 2
-27 -4 -35 -17 -6 -11 -19 -27 -28 -36 -17 -15 -16 -17 5 -28 l22 -12 -22 5
c-16 3 -24 -2 -29 -16 -3 -11 -8 -17 -11 -14 -10 10 -253 -334 -253 -359 0 -8
-9 -19 -20 -25 -11 -6 -20 -19 -20 -30 0 -10 -3 -20 -7 -22 -11 -4 -65 -78
-58 -78 3 0 -4 -10 -15 -22 -11 -13 -33 -43 -47 -68 -32 -55 -205 -310 -247
-364 -155 -198 -246 -309 -321 -390 -47 -51 -155 -186 -155 -194 0 -6 -4 -12
-8 -14 -21 -8 -302 -371 -473 -610 -189 -265 -217 -303 -439 -584 -111 -142
-126 -162 -122 -176 1 -5 -1 -7 -6 -4 -7 4 -32 -28 -161 -208 -99 -137 -275
-367 -358 -467 -48 -58 -154 -184 -235 -280 -80 -97 -242 -274 -360 -394 -117
-120 -220 -225 -228 -234 -9 -9 -47 -52 -85 -95 -39 -44 -79 -90 -90 -102 -72
-80 -100 -115 -97 -125 1 -6 -1 -8 -6 -5 -7 4 -83 -76 -83 -88 0 -3 -21 -27
-47 -53 -51 -53 -151 -164 -204 -229 -18 -23 -48 -60 -67 -83 -18 -23 -43 -56
-56 -74 -51 -76 -206 -288 -229 -314 -25 -29 -172 -210 -388 -478 -67 -82
-195 -260 -285 -395 -90 -135 -190 -281 -221 -325 -32 -44 -80 -116 -107 -160
-51 -82 -107 -159 -290 -398 -107 -140 -185 -257 -185 -280 0 -7 -9 -18 -20
-24 -25 -16 -181 -252 -183 -277 -1 -10 -9 -21 -17 -23 -9 -2 -43 -40 -76 -83
-32 -43 -67 -81 -77 -84 -13 -3 -17 -10 -13 -24 4 -11 0 -24 -9 -32 -8 -7 -15
-19 -15 -27 0 -8 -5 -11 -11 -7 -7 4 -10 1 -7 -7 2 -7 -8 -26 -24 -42 -15 -17
-28 -36 -28 -43 0 -8 -4 -14 -9 -14 -5 0 -33 -39 -62 -87 -52 -85 -108 -160
-80 -105 22 42 -4 22 -32 -26 -15 -26 -43 -67 -63 -92 -19 -25 -42 -57 -52
-72 -9 -16 -20 -28 -24 -28 -5 0 -8 -5 -8 -11 0 -6 -22 -41 -48 -78 -65 -89
-66 -91 -48 -91 8 0 18 9 21 20 3 11 11 20 16 20 13 0 11 -34 -2 -47 -8 -8 -8
-17 0 -32 10 -18 9 -21 -7 -21 -15 0 -18 -5 -14 -25 2 -15 0 -25 -7 -25 -6 0
-11 -7 -11 -15 0 -7 -8 -19 -17 -24 -10 -6 -15 -11 -11 -11 13 0 -30 -49 -93
-106 -9 -8 -21 -14 -28 -14 -7 0 -9 -5 -6 -10 3 -6 1 -10 -5 -10 -6 0 -9 -4
-6 -8 3 -5 -4 -15 -14 -22 -16 -11 -17 -17 -7 -29 10 -12 9 -14 -5 -8 -10 3
-18 2 -18 -3 0 -6 5 -10 10 -10 6 0 10 -4 10 -9 0 -5 -10 -7 -22 -4 -16 3 -19
2 -10 -4 15 -11 5 -43 -13 -43 -7 0 -15 -4 -17 -10 -2 -6 -16 -6 -40 2 -21 6
-35 15 -32 20 3 4 0 8 -5 8 -6 0 -11 -4 -11 -10 0 -31 -75 20 -144 98 -6 6
-41 45 -78 85 -69 74 -80 91 -52 80 14 -5 13 -3 -2 15 -22 27 -35 28 -29 5 3
-10 0 -6 -7 8 -22 45 -39 60 -62 54 -14 -4 -17 -3 -8 3 9 6 4 16 -20 39 -89
83 -237 241 -231 247 3 3 0 6 -8 6 -8 1 -30 19 -49 42 -19 22 -47 54 -62 70
-16 16 -28 33 -28 38 0 6 -5 10 -10 10 -11 0 -130 121 -130 132 0 4 -6 13 -13
20 -7 7 -27 34 -44 59 -28 40 -78 93 -59 62 5 -9 2 -11 -9 -7 -11 5 -13 10 -5
19 8 9 8 15 0 20 -5 3 -10 1 -10 -6 0 -16 -15 -1 -15 14 0 7 -8 11 -18 11 -13
-1 -15 4 -11 22 4 15 2 24 -6 24 -6 0 -8 5 -4 13 6 9 5 9 -7 0 -13 -10 -16
-10 -16 2 0 8 5 15 10 15 6 0 0 9 -12 19 -13 11 -28 19 -34 17 -7 -1 -9 -1 -4
1 12 8 8 31 -8 37 -8 3 -15 0 -15 -6 0 -9 -3 -9 -11 -1 -6 6 -17 9 -24 7 -23
-9 -40 34 -20 48 6 5 6 8 -2 8 -6 0 -15 -4 -18 -10 -6 -10 -45 9 -45 22 0 4
-18 27 -40 51 -50 55 -80 111 -73 137 3 11 1 20 -5 20 -5 0 -7 17 -5 39 3 22
0 42 -6 46 -6 3 -11 16 -11 27 0 11 -21 50 -47 85 -90 120 -157 208 -163 213
-3 3 -17 21 -30 40 -13 19 -101 136 -195 260 -177 233 -228 307 -316 457 -49
83 -190 294 -213 319 -6 6 -17 20 -24 30 -7 11 -28 42 -48 69 -39 54 -77 111
-226 340 -53 83 -101 155 -106 160 -5 6 -26 35 -47 65 -53 76 -140 181 -222
270 -38 41 -81 89 -95 105 -14 17 -46 53 -71 82 -25 29 -65 81 -88 115 -24 37
-147 168 -299 318 -241 239 -430 440 -600 640 -40 47 -143 157 -230 245 -140
143 -279 299 -320 359 -47 68 -181 234 -241 297 -14 15 -45 51 -70 81 -24 29
-104 118 -179 198 -74 80 -163 177 -196 215 -184 209 -215 243 -250 276 -43
40 -155 162 -260 284 -38 44 -71 82 -74 85 -20 19 -131 154 -205 250 -49 63
-144 178 -210 255 -66 77 -138 162 -160 189 -58 71 -111 131 -187 211 -69 73
-88 94 -207 235 -40 47 -121 135 -180 195 -110 112 -198 216 -307 366 -34 46
-93 118 -130 160 -117 128 -200 221 -252 284 -126 149 -254 310 -305 382 -65
91 -153 179 -252 251 -174 127 -267 225 -452 472 -39 52 -91 116 -115 141 -23
26 -58 63 -76 83 -26 29 -37 35 -58 30 -28 -7 -43 7 -72 71 -11 22 -33 60 -50
85 -19 28 -26 47 -20 51 7 4 3 11 -9 17 -11 6 -27 28 -37 49 -18 38 -93 104
-133 117 -11 4 -28 17 -36 29 -14 21 -13 26 14 65 15 23 24 44 19 47 -25 16
-9 51 38 82 44 29 50 36 61 90 56 251 387 924 663 1348 40 61 111 178 159 260
47 83 111 193 141 245 30 52 108 192 173 310 65 118 168 303 230 410 61 107
130 233 152 280 23 47 93 191 156 321 64 130 145 305 182 390 37 85 105 228
152 319 220 422 568 1121 633 1270 40 91 114 253 165 360 51 107 138 301 193
430 55 129 121 280 147 335 26 55 84 184 130 286 77 170 167 348 216 424 259
404 330 531 561 1014 45 94 249 478 295 556 16 28 44 70 61 95 18 25 45 63 60
85 16 22 76 105 133 185 57 80 116 163 131 185 52 76 162 210 243 295 45 47
129 135 187 195 144 150 161 171 273 325 55 74 142 186 194 249 148 176 160
191 213 269 27 40 102 162 167 271 65 108 160 257 212 331 52 74 123 182 158
240 36 58 114 183 175 278 61 95 116 181 121 190 6 9 74 112 151 227 77 116
173 266 213 335 123 210 555 842 602 880 3 3 21 28 40 55 47 70 126 171 175
225 48 53 64 80 64 112 0 13 7 36 15 52 8 15 15 37 15 48 0 11 14 41 31 66 27
40 29 49 19 71 -7 16 -8 27 -2 29 6 2 22 14 37 28 14 13 30 24 34 24 5 0 11
14 15 30 4 21 11 30 26 30 11 0 20 4 20 9 0 8 58 27 110 35 14 3 26 5 28 7 1
1 5 2 10 4 4 1 14 4 22 8 8 3 22 5 30 5 31 0 254 48 350 76 30 9 80 18 110 21
67 6 252 33 300 44 63 13 171 12 223 -4z m2031 -2231 c4 -10 1 -14 -6 -12 -15
5 -23 28 -10 28 5 0 13 -7 16 -16z m190 -229 c-6 -16 -24 -21 -24 -7 0 11 11
22 21 22 5 0 6 -7 3 -15z m86 -119 c0 -9 -30 -14 -35 -6 -4 6 3 10 14 10 12 0
21 -2 21 -4z m484 -741 c3 -9 0 -15 -10 -15 -8 0 -13 4 -10 9 4 5 0 12 -6 14
-8 4 -7 6 3 6 9 1 19 -6 23 -14z m50 -89 c-3 -9 -10 -16 -16 -16 -5 0 -6 5 -3
10 3 6 1 10 -5 10 -7 0 -7 6 1 22 10 18 13 19 20 5 5 -8 6 -22 3 -31z m1336
-2226 c0 -5 -5 -10 -11 -10 -5 0 -7 5 -4 10 3 6 8 10 11 10 2 0 4 -4 4 -10z
m60 -70 c0 -5 -2 -10 -4 -10 -3 0 -8 5 -11 10 -3 6 -1 10 4 10 6 0 11 -4 11
-10z m50 -180 c0 -5 -5 -10 -11 -10 -5 0 -7 5 -4 10 3 6 8 10 11 10 2 0 4 -4
4 -10z m247 -342 c-2 -7 3 -19 12 -26 14 -11 13 -11 -6 -2 -23 11 -28 21 -16
33 10 11 15 8 10 -5z m53 -63 c0 -16 -28 -15 -34 1 -3 8 3 12 15 11 10 -1 19
-6 19 -12z m23 -45 c-4 -17 -8 -18 -20 -8 -13 10 -13 13 4 19 10 4 19 8 20 8
0 1 -1 -8 -4 -19z m22 -39 c-3 -6 -11 -8 -17 -5 -6 4 -5 9 3 15 16 10 23 4 14
-10z m20 -49 c-3 -3 -11 0 -18 7 -9 10 -8 11 6 5 10 -3 15 -9 12 -12z m1872
-3024 c-3 -8 -6 -5 -6 6 -1 11 2 17 5 13 3 -3 4 -12 1 -19z m223 -288 c0 -5
-5 -10 -11 -10 -5 0 -7 5 -4 10 3 6 8 10 11 10 2 0 4 -4 4 -10z m398 -602 c-2
-6 -10 -13 -16 -14 -7 -1 -8 0 -2 3 5 2 8 9 4 14 -3 5 0 9 6 9 7 0 10 -5 8
-12z m77 -148 c-3 -5 -14 -10 -23 -10 -15 0 -15 2 -2 10 20 13 33 13 25 0z
m77 -68 c10 -7 25 -27 34 -44 13 -25 14 -32 2 -39 -34 -22 -62 13 -31 37 16
13 15 13 -10 4 -38 -14 -39 -13 -25 11 10 17 10 23 1 26 -7 2 -9 11 -6 20 4
11 2 14 -5 9 -8 -5 -10 -2 -5 10 5 15 7 14 16 -2 6 -11 19 -25 29 -32z m69
-102 c5 0 9 -7 9 -16 0 -8 -4 -12 -10 -9 -5 3 -10 0 -10 -7 -1 -7 -6 -3 -13 9
-10 17 -16 20 -30 11 -10 -5 -21 -7 -24 -4 -8 8 39 26 55 20 8 -2 18 -4 23 -4z
m-41 -30 c0 -5 -5 -10 -11 -10 -5 0 -7 5 -4 10 3 6 8 10 11 10 2 0 4 -4 4 -10z
m45 -20 c-3 -5 -1 -10 4 -10 6 0 11 5 11 10 0 19 44 -29 45 -50 2 -28 -14 -25
-25 5 -6 15 -17 25 -30 25 -20 0 -26 11 -13 23 10 10 15 8 8 -3z m-61 -25 c3
-8 1 -15 -3 -15 -5 0 -11 7 -15 15 -3 8 -1 15 3 15 5 0 11 -7 15 -15z m221
-156 c4 -16 10 -29 15 -29 4 0 11 -12 14 -26 5 -19 11 -24 23 -19 14 5 13 2
-3 -16 -10 -12 -14 -19 -8 -16 7 4 17 0 24 -8 7 -8 10 -15 7 -15 -3 0 -1 -13
4 -30 6 -17 16 -27 22 -23 5 3 7 1 3 -5 -3 -5 0 -12 6 -15 10 -3 10 -7 1 -17
-9 -10 -15 -6 -27 18 -9 17 -16 38 -16 47 0 8 -4 15 -10 15 -11 0 -50 76 -50
97 0 7 -3 13 -8 13 -4 0 -15 12 -24 28 -15 23 -18 24 -18 8 0 -16 -3 -17 -12
-8 -16 16 7 33 31 24 14 -5 14 -4 1 14 -14 17 -14 18 2 6 9 -7 20 -27 23 -43z
m155 -304 c0 -15 -5 -13 -20 13 -11 18 -17 38 -14 44 8 13 33 -29 34 -57z m35
-45 c-3 -5 6 -26 21 -47 14 -21 30 -48 35 -61 6 -15 14 -21 21 -16 7 4 4 -3
-7 -15 -19 -22 -19 -22 -27 -2 -4 12 -14 21 -23 21 -9 0 -15 9 -14 23 1 39 -6
61 -24 79 -20 21 -15 40 8 32 8 -4 13 -10 10 -14z m-6 -70 c11 -24 11 -24 -3
-6 -9 11 -16 24 -16 30 0 12 5 7 19 -24z m115 -46 c3 -8 2 -12 -4 -9 -6 3 -10
10 -10 16 0 14 7 11 14 -7z m-10 -50 c17 -17 21 -50 8 -58 -7 -4 -42 54 -42
69 0 10 19 4 34 -11z m47 -97 c-7 -7 -10 -4 -9 9 0 10 -2 28 -6 39 -4 11 0 7
9 -9 12 -19 14 -31 6 -39z m16 -39 c-3 -8 -6 -5 -6 6 -1 11 2 17 5 13 3 -3 4
-12 1 -19z m48 -57 c-9 -16 -25 -3 -18 15 4 10 9 12 15 6 6 -6 7 -15 3 -21z
m42 -57 c-9 -9 -28 6 -21 18 4 6 10 6 17 -1 6 -6 8 -13 4 -17z m39 -50 c-3 -8
1 -17 10 -21 8 -3 13 -12 10 -19 -3 -7 -1 -16 4 -19 4 -3 10 -1 12 5 2 5 9 6
17 1 12 -8 12 -12 -2 -25 -18 -18 -27 -20 -27 -6 0 6 -11 28 -25 51 -14 22
-23 44 -20 50 9 14 27 -1 21 -17z m94 -115 c0 -11 -4 -17 -10 -14 -6 4 -17 2
-25 -5 -11 -9 -12 -7 -8 9 3 11 12 22 22 24 9 3 17 5 19 6 1 0 2 -8 2 -20z
m215 -219 c-3 -5 -12 -10 -18 -10 -7 0 -6 4 3 10 19 12 23 12 15 0z m124 -298
c0 -11 -2 -12 -6 -4 -2 6 -9 10 -14 7 -5 -4 -6 1 -3 9 8 20 24 11 23 -12z
m140 -53 c19 -25 21 -33 10 -40 -23 -14 -32 -10 -26 11 3 13 1 18 -6 13 -6 -4
-8 2 -4 16 4 18 3 20 -9 10 -14 -11 -20 1 -7 14 11 12 19 8 42 -24z m21 -59
c0 -5 -5 -10 -11 -10 -5 0 -7 5 -4 10 3 6 8 10 11 10 2 0 4 -4 4 -10z m-10
-30 c0 -5 -4 -10 -10 -10 -5 0 -10 5 -10 10 0 6 5 10 10 10 6 0 10 -4 10 -10z
m305 -479 c-3 -6 -11 -8 -17 -5 -6 4 -5 9 3 15 16 10 23 4 14 -10z m145 -196
c0 -8 -5 -15 -11 -15 -5 0 -8 4 -5 9 4 5 0 12 -6 14 -8 3 -6 6 5 6 9 1 17 -6
17 -14z m-13 -121 c0 -19 -21 -12 -25 9 -2 11 1 15 11 12 7 -3 14 -13 14 -21z
m53 -61 c-1 -17 -2 -17 -13 -1 -12 15 -14 15 -24 0 -9 -14 -13 -15 -24 -4 -12
11 -11 12 3 7 13 -5 19 0 24 19 5 22 8 23 20 11 8 -7 14 -22 14 -32z m5 -33
c3 -5 1 -10 -4 -10 -6 0 -11 5 -11 10 0 6 2 10 4 10 3 0 8 -4 11 -10z m12 -52
c-3 -7 -5 -2 -5 12 0 14 2 19 5 13 2 -7 2 -19 0 -25z m-67 -58 c0 -5 -5 -10
-11 -10 -5 0 -7 5 -4 10 3 6 8 10 11 10 2 0 4 -4 4 -10z m-30 -10 c0 -5 -2
-10 -4 -10 -3 0 -8 5 -11 10 -3 6 -1 10 4 10 6 0 11 -4 11 -10z m50 -20 c0
-17 -5 -25 -12 -22 -5 1 -8 -3 -8 -9 0 -5 -5 -7 -10 -4 -7 4 -7 13 0 26 11 20
30 26 30 9z m71 -115 c3 2 10 -4 17 -15 7 -12 8 -21 2 -25 -6 -3 -10 1 -10 9
0 9 -5 16 -11 16 -15 0 -39 26 -31 34 3 4 12 0 18 -8 6 -9 13 -14 15 -11z
m-15 -126 c1 -71 -3 -82 -25 -61 -13 13 -15 21 -7 34 5 9 15 14 21 10 11 -7
-15 29 -29 40 -12 8 13 40 28 35 6 -2 11 -28 12 -58z m-10 -175 c-4 -11 1 -18
14 -21 11 -3 17 -9 14 -14 -3 -6 -12 -5 -22 0 -10 6 -24 5 -36 -1 -16 -9 -18
-8 -13 7 4 9 7 21 7 26 0 4 7 6 15 3 8 -4 15 -1 15 5 0 6 3 11 6 11 3 0 3 -7
0 -16z m-250 -562 c-4 -3 -12 0 -19 7 -9 9 -9 14 3 21 11 7 16 5 18 -6 2 -9 1
-18 -2 -22z m-11 -56 c8 4 15 2 15 -4 0 -9 -23 -22 -40 -22 -11 0 -21 30 -14
42 4 7 10 5 16 -5 5 -9 15 -14 23 -11z m-35 -81 c0 -12 -29 -3 -34 10 -4 13
-2 14 14 5 11 -6 20 -13 20 -15z m-164 -191 c20 8 17 -1 -7 -25 -17 -17 -23
-19 -30 -8 -4 8 -4 16 2 20 6 3 10 9 10 13 -3 18 2 28 6 13 3 -11 11 -16 19
-13z m-108 -128 c-7 -8 -15 -12 -17 -11 -5 6 10 25 20 25 5 0 4 -6 -3 -14z
m-333 -295 c0 -6 -11 -17 -24 -24 -28 -14 -43 -44 -18 -34 9 3 19 2 22 -3 4
-6 -1 -10 -10 -10 -9 0 -13 -4 -10 -10 11 -18 -32 -10 -49 9 -17 19 -17 20 13
36 18 9 29 20 26 25 -6 10 25 31 40 26 6 -1 10 -8 10 -15z m45 -31 c-8 -5 -19
-10 -25 -10 -5 0 -3 5 5 10 8 5 20 10 25 10 6 0 3 -5 -5 -10z m-390 -195 c0
-8 -4 -16 -9 -19 -5 -4 -7 4 -4 16 4 22 4 23 -11 4 -13 -17 -16 -17 -16 -4 0
17 19 29 33 21 4 -2 7 -10 7 -18z m34 -23 c11 -18 -13 -34 -43 -30 -17 2 -32
0 -35 -6 -2 -6 -7 -3 -11 7 -10 25 -1 31 26 16 19 -10 25 -9 34 5 11 17 21 20
29 8z m-31 -58 c-2 -6 -12 -11 -21 -10 -11 1 -17 -6 -16 -21 0 -13 -4 -19 -10
-15 -6 3 -17 7 -24 8 -20 3 -28 14 -11 14 8 0 20 9 26 19 13 20 64 24 56 5z
m177 -18 c0 -2 -7 -7 -16 -10 -8 -3 -12 -2 -9 4 6 10 25 14 25 6z m-265 -227
c6 -9 -7 -19 -35 -24 -14 -3 -20 2 -20 14 0 13 8 19 25 19 14 0 28 -4 30 -9z
m-104 -119 c7 0 10 -3 6 -6 -10 -11 -67 7 -67 21 0 21 34 23 42 3 4 -10 13
-18 19 -18z m-65 -29 c-4 -5 0 -12 6 -15 7 -3 2 -3 -11 0 -16 4 -21 3 -17 -5
4 -6 13 -11 21 -11 8 0 16 -4 20 -10 10 -17 -6 -58 -26 -63 -27 -7 -25 21 4
45 21 19 21 20 2 17 -42 -5 -76 31 -42 44 21 9 48 7 43 -2z m84 -18 c0 -5 -7
-17 -15 -27 -13 -17 -15 -18 -15 -3 0 9 -4 17 -10 17 -5 0 -10 5 -10 10 0 6
11 10 25 10 14 0 25 -3 25 -7z m-180 -82 c0 -5 -7 -11 -15 -15 -9 -3 -15 0
-15 9 0 8 7 15 15 15 8 0 15 -4 15 -9z m-155 -281 c3 -5 1 -10 -4 -10 -6 0
-11 5 -11 10 0 6 2 10 4 10 3 0 8 -4 11 -10z m-11 -77 c-32 -23 -44 -17 -32
18 10 29 11 29 30 12 18 -16 18 -18 2 -30z m-64 -24 c0 -7 8 -18 18 -25 25
-20 -3 -17 -34 3 -19 12 -22 18 -12 24 18 12 28 11 28 -2z m-76 -104 c-4 -8
-7 -15 -9 -15 -2 0 -5 7 -9 15 -3 9 0 15 9 15 9 0 12 -6 9 -15z m46 -71 c0 -7
-13 -14 -30 -16 -31 -5 -30 -3 5 38 11 13 25 0 25 -22z m-72 -2 c2 -7 -2 -10
-12 -6 -9 3 -16 11 -16 16 0 13 23 5 28 -10z m-60 -42 c7 -12 8 -20 2 -20 -5
0 -10 4 -10 10 0 5 -7 7 -15 4 -9 -4 -15 0 -15 10 0 22 23 20 38 -4z m49 -17
c-15 -16 -17 -16 -17 -1 0 9 6 18 13 21 20 7 22 -2 4 -20z m-69 -15 c-2 -9 8
-12 30 -12 27 2 32 -2 32 -20 0 -11 -10 -28 -22 -35 -30 -19 -60 -22 -54 -5 3
7 -2 18 -10 24 -8 7 -14 20 -14 29 1 13 3 12 12 -4 15 -28 15 -28 27 -20 8 4
6 11 -4 21 -17 18 -20 34 -5 34 6 0 9 -6 8 -12z m-52 -47 c-4 -5 0 -12 6 -14
8 -3 6 -6 -4 -6 -18 -1 -24 10 -11 22 9 10 15 8 9 -2z m41 -76 c-6 -17 -37
-18 -37 -1 0 9 8 14 20 13 11 -1 19 -6 17 -12z m-107 -73 c20 -9 24 -32 5 -32
-8 0 -15 5 -15 10 0 7 -6 7 -20 0 -22 -12 -23 -10 -14 14 6 17 19 19 44 8z
m50 -53 c0 -5 -4 -7 -10 -4 -5 3 -10 -4 -10 -15 0 -16 -5 -20 -15 -16 -9 3
-15 0 -15 -10 0 -8 -4 -13 -9 -9 -5 3 -12 1 -16 -5 -9 -14 -25 -2 -19 14 3 7
-2 16 -10 19 -27 11 -18 25 14 21 16 -2 32 1 35 6 8 13 55 13 55 -1z m-135
-89 c3 -5 12 -7 20 -4 10 4 12 0 8 -17 -4 -15 -3 -20 6 -15 8 5 8 1 1 -16 -13
-27 -54 -33 -84 -12 -20 14 -20 14 -1 14 17 0 17 2 5 10 -13 8 -12 10 3 10 14
0 17 -5 12 -20 -3 -11 -2 -20 3 -20 15 0 9 40 -8 50 -13 9 -13 11 0 20 19 12
27 12 35 0z m-315 -320 c0 -19 -11 -26 -23 -14 -8 8 3 34 14 34 5 0 9 -9 9
-20z m31 -139 c-11 -7 -10 -10 5 -14 16 -4 15 -5 -4 -6 -13 0 -20 -5 -17 -11
7 -11 -8 -14 -18 -3 -9 8 22 43 37 43 6 0 5 -4 -3 -9z m-294 -287 c-3 -3 -12
-4 -19 -1 -8 3 -5 6 6 6 11 1 17 -2 13 -5z m-57 -83 c0 -10 -26 -9 -36 2 -4 4
2 7 14 7 12 0 22 -4 22 -9z m-63 -87 c-3 -3 -12 -4 -19 -1 -8 3 -5 6 6 6 11 1
17 -2 13 -5z m-70 -80 c-3 -3 -12 -4 -19 -1 -8 3 -5 6 6 6 11 1 17 -2 13 -5z
m-50 -70 c-3 -3 -12 -4 -19 -1 -8 3 -5 6 6 6 11 1 17 -2 13 -5z m-5107 -6368
c0 -3 -4 -8 -10 -11 -5 -3 -10 -1 -10 4 0 6 5 11 10 11 6 0 10 -2 10 -4z
m-1225 -896 c3 -5 2 -10 -4 -10 -5 0 -13 5 -16 10 -3 6 -2 10 4 10 5 0 13 -4
16 -10z"/>
<path d="M13747 21117 c-54 -56 -122 -121 -150 -145 -94 -77 -231 -205 -517
-486 -119 -116 -276 -270 -350 -342 -74 -72 -160 -158 -190 -190 -152 -162
-443 -520 -583 -719 -54 -77 -297 -409 -315 -430 -8 -10 -73 -114 -210 -335
-39 -63 -95 -151 -126 -195 -217 -314 -296 -440 -401 -640 -168 -319 -203
-383 -288 -522 -30 -50 -107 -187 -171 -305 -63 -117 -139 -253 -170 -303
-133 -215 -175 -293 -386 -710 -320 -632 -405 -791 -511 -955 -36 -57 -112
-208 -164 -325 -21 -49 -78 -166 -126 -260 -48 -93 -106 -213 -129 -265 -23
-52 -79 -171 -125 -265 -93 -191 -105 -224 -103 -277 1 -20 -5 -44 -12 -53 -7
-9 -8 -15 -2 -15 6 0 12 5 14 12 3 8 6 9 11 1 3 -5 -1 -19 -9 -29 -9 -10 -12
-13 -8 -5 4 9 3 12 -4 7 -12 -7 -5 -37 12 -48 7 -5 7 -8 -2 -8 -7 0 -11 -4 -8
-8 7 -11 -37 -10 -45 1 -11 15 -49 -109 -70 -227 -27 -156 15 -383 94 -501 22
-33 43 -62 46 -65 8 -6 141 -237 141 -244 0 -3 78 -123 174 -268 214 -325 604
-855 728 -990 74 -80 98 -109 98 -116 0 -4 16 -25 35 -47 19 -22 35 -43 35
-47 0 -14 114 -173 180 -253 73 -87 217 -284 238 -326 8 -14 31 -49 53 -78 21
-28 36 -51 32 -51 -4 0 3 -7 15 -16 12 -8 22 -23 22 -33 0 -10 11 -28 25 -41
13 -12 22 -26 20 -30 -3 -4 2 -13 10 -20 8 -7 15 -17 15 -23 0 -9 69 -106 95
-133 5 -6 28 -36 50 -67 24 -34 48 -57 60 -57 11 -1 14 -4 8 -7 -19 -7 -16
-23 4 -23 9 0 13 -3 10 -6 -4 -4 3 -15 14 -25 11 -9 20 -20 20 -23 -3 -21 1
-26 12 -20 6 4 9 3 4 -1 -4 -5 1 -20 10 -34 19 -30 210 -269 231 -290 8 -8 55
-69 105 -135 50 -67 115 -149 144 -184 29 -35 53 -67 53 -71 0 -4 8 -16 18
-27 9 -10 62 -75 117 -144 55 -69 102 -127 105 -130 3 -3 22 -26 43 -53 21
-26 62 -71 90 -101 29 -30 61 -69 71 -87 11 -18 27 -42 37 -53 40 -47 55 -65
69 -86 8 -12 29 -41 46 -64 17 -22 56 -75 86 -116 31 -41 73 -93 93 -115 40
-44 163 -193 238 -288 115 -147 254 -312 339 -404 31 -35 75 -89 97 -122 22
-32 46 -65 53 -72 8 -8 42 -50 78 -94 35 -44 89 -106 119 -138 105 -109 252
-322 363 -522 31 -55 87 -156 125 -225 38 -69 72 -132 75 -141 10 -27 75 -123
107 -156 32 -35 71 -44 71 -17 0 8 4 13 9 9 5 -3 12 -1 15 4 4 5 2 12 -4 16
-7 4 -6 14 2 28 7 12 11 26 10 31 -2 5 8 6 22 4 14 -3 23 -2 21 2 -3 4 5 16
16 26 11 10 18 23 15 30 -3 7 6 26 19 41 13 15 35 44 48 63 13 19 30 34 37 32
7 -2 10 3 7 12 -3 8 2 20 11 28 13 11 14 11 8 -1 -7 -11 -5 -11 10 -3 10 6 19
19 19 29 0 10 6 18 13 18 17 0 43 35 36 46 -3 5 0 9 6 9 6 0 8 5 4 12 -5 8 -2
9 12 4 10 -4 15 -4 11 0 -4 4 -2 13 4 21 6 7 8 13 5 13 -4 0 5 11 19 24 14 13
27 34 28 46 1 15 6 20 19 17 10 -3 18 -1 18 5 0 5 5 6 11 2 7 -4 10 -1 7 7 -3
8 4 22 14 31 11 10 18 27 17 40 -2 13 0 29 4 36 5 7 2 15 -8 18 -13 5 -14 9
-4 15 8 4 18 1 25 -9 10 -14 15 -15 26 -4 11 11 10 12 -7 7 -17 -6 -16 -3 5
16 15 13 18 20 8 16 -10 -3 -19 1 -23 11 -6 15 -9 14 -26 -7 -10 -13 -19 -19
-19 -14 0 6 8 17 18 26 14 13 21 14 30 5 6 -6 15 -9 19 -5 4 4 1 13 -5 19 -15
15 -16 32 -2 23 6 -3 10 0 10 8 0 7 21 41 46 75 31 42 53 62 67 62 14 0 18 3
10 8 -7 4 -9 13 -4 21 5 8 14 10 21 6 8 -5 11 -3 8 6 -3 8 10 24 29 37 24 17
33 30 30 42 -3 12 0 17 7 14 7 -3 18 7 26 21 7 14 17 25 22 25 4 0 8 5 8 10 0
6 9 20 20 32 11 12 20 33 20 47 1 14 7 37 15 51 l15 25 -6 -28 c-7 -31 11 -38
21 -8 3 11 13 22 21 25 8 3 12 11 9 17 -7 11 25 40 36 33 3 -2 4 8 1 21 -3 18
0 25 12 25 10 0 14 -6 10 -17 -4 -12 1 -9 15 7 23 28 27 45 9 34 -7 -4 -4 3 7
15 11 13 19 25 17 27 -1 3 2 12 8 22 9 14 10 13 5 -8 -6 -24 -6 -25 10 -5 9
11 14 28 11 39 -3 10 2 25 10 33 9 9 14 10 14 3 0 -20 25 -4 26 16 3 55 4 59
13 46 6 -10 10 -7 15 12 4 15 11 24 16 21 6 -3 10 1 10 9 0 8 9 20 20 26 11 6
20 20 20 30 0 11 5 20 11 20 6 0 8 7 5 16 -4 12 -2 15 9 10 11 -4 15 1 15 20
0 20 4 24 19 19 18 -5 39 21 26 33 -3 3 -5 -1 -5 -8 0 -7 -3 -11 -6 -8 -10 10
27 70 65 107 53 52 71 82 58 102 -8 13 -6 21 6 34 9 9 17 21 17 26 0 5 5 9 10
9 15 0 12 -27 -5 -44 -9 -9 -11 -17 -5 -21 5 -3 10 -1 10 5 0 6 4 8 10 5 5 -3
7 0 5 7 -3 8 2 22 10 33 16 19 16 19 9 -5 -6 -26 18 2 90 104 16 23 36 46 45
53 9 7 13 13 8 13 -4 0 1 9 10 19 30 33 43 50 43 56 0 9 42 66 68 93 12 12 22
27 22 33 0 5 16 24 36 41 19 17 41 43 49 58 7 14 26 40 42 57 101 111 136 163
110 163 -7 1 -1 7 13 15 17 9 27 10 31 3 7 -11 31 27 57 87 9 23 11 24 8 6 -4
-22 -2 -21 24 10 16 19 29 37 30 41 0 8 32 48 65 82 55 56 185 212 185 221 0
5 -7 2 -14 -7 -7 -10 -17 -18 -21 -18 -5 0 0 9 9 19 10 11 24 17 31 15 13 -5
85 61 85 78 0 4 7 8 15 8 8 0 15 4 15 8 0 8 14 27 52 72 7 8 12 18 10 22 -1 5
7 8 18 8 13 0 18 5 14 15 -8 20 6 19 21 -2 11 -15 13 -15 19 5 4 12 11 22 15
22 5 0 14 14 21 31 8 18 16 26 20 19 9 -14 28 8 33 38 2 12 9 28 15 34 7 7 12
21 12 31 0 13 5 17 15 13 22 -8 18 7 -5 22 -11 7 -20 17 -20 24 0 6 3 8 7 4 4
-4 13 8 19 26 6 18 17 32 23 30 6 -1 11 5 11 13 0 8 -5 15 -11 15 -6 0 -9 7
-6 15 4 8 2 17 -3 20 -6 3 -1 16 11 28 11 12 23 35 26 50 3 16 12 31 19 34 8
3 11 9 8 15 -3 5 5 18 18 30 15 14 19 22 11 25 -18 7 -16 23 3 23 10 0 14 6
10 15 -3 8 1 21 9 29 8 8 15 20 15 26 0 7 8 9 19 5 19 -6 30 2 69 49 7 9 10
16 7 16 -5 0 2 8 54 65 12 15 20 29 17 32 -11 11 25 42 42 36 10 -4 13 -2 8 5
-4 7 -1 12 8 12 9 0 16 5 16 11 0 6 7 17 15 26 8 8 14 18 12 21 -2 4 4 15 15
24 12 12 18 14 18 5 0 -12 18 14 44 68 9 17 15 26 16 22 0 -18 79 79 80 98 0
18 -2 18 -20 -5 -13 -17 -20 -20 -20 -10 0 9 9 22 20 30 11 8 20 20 20 27 0 7
7 13 15 13 18 0 19 -12 4 -27 -9 -9 -6 -10 10 -6 13 3 27 17 32 30 5 14 16 31
24 40 8 8 13 18 10 23 -3 5 0 12 6 16 6 3 15 1 19 -6 5 -8 12 0 21 24 8 21 18
35 25 32 12 -5 29 21 26 37 -1 4 9 13 23 19 15 7 24 17 21 25 -3 7 0 12 7 10
7 -1 11 6 11 15 -1 10 2 15 7 12 5 -3 9 4 9 16 0 12 4 19 10 15 5 -3 20 5 32
17 19 19 20 23 7 26 -17 3 -20 55 -4 70 4 4 6 -7 3 -24 -3 -25 0 -30 16 -32
15 -1 17 1 7 7 -10 6 -10 10 -1 16 6 4 9 13 6 21 -3 8 -1 14 4 14 5 0 12 10
16 22 3 12 12 28 19 34 7 7 10 25 7 40 -4 23 -2 26 12 21 10 -4 15 -3 11 3 -3
6 -3 15 1 21 4 8 9 7 15 -2 6 -10 9 -11 9 -1 0 6 7 12 15 12 8 0 15 -5 15 -11
0 -5 5 -7 11 -3 6 3 9 15 6 25 -3 11 -2 19 2 19 13 0 31 49 32 83 0 27 2 29 9
12 5 -11 9 -14 9 -7 1 7 4 11 9 9 4 -3 8 10 9 29 2 19 11 43 20 54 10 10 28
31 41 44 12 14 22 28 22 32 0 3 9 19 21 36 12 16 18 32 15 35 -3 4 -6 1 -6 -6
0 -7 -4 -9 -10 -6 -6 4 -5 11 3 19 6 8 16 11 21 8 5 -3 7 2 3 10 -4 12 0 15
16 12 12 -2 16 -2 10 2 -19 8 -16 22 5 20 9 0 17 6 16 14 -1 20 54 72 62 59 3
-6 14 0 25 12 11 12 16 25 13 28 -4 3 -9 0 -11 -6 -3 -7 -9 -13 -14 -13 -5 0
-4 10 3 22 17 29 38 52 38 41 0 -5 -6 -15 -12 -22 -11 -10 -9 -12 7 -9 13 2
20 11 19 25 0 12 4 19 9 16 6 -4 8 1 4 10 -4 11 -1 17 9 17 8 0 12 4 9 10 -3
5 0 19 8 31 8 11 18 16 21 11 3 -5 37 22 76 61 40 41 65 74 59 78 -6 3 -2 9
10 12 12 3 20 11 18 19 -2 7 -2 10 0 6 10 -17 24 -7 18 12 -5 16 -2 20 15 20
12 0 19 4 16 9 -5 8 34 68 57 86 22 17 59 84 52 95 -3 6 0 7 9 4 9 -3 16 -1
16 4 0 6 46 80 103 165 114 170 138 215 192 362 20 55 62 154 92 220 30 65 82
203 115 305 33 102 64 194 69 205 9 21 13 55 9 68 -1 4 -3 10 -4 15 -1 4 -7
17 -14 29 -9 17 -9 22 1 26 6 3 2 6 -10 6 -20 1 -21 4 -13 26 7 18 6 24 -3 22
-7 -1 -11 4 -9 11 1 6 -2 12 -8 12 -5 0 -10 -6 -10 -12 0 -7 -9 7 -20 31 -11
24 -18 46 -16 48 8 8 -33 107 -46 111 -9 2 -10 1 -2 -5 7 -4 12 -17 12 -28 -1
-35 2 -46 10 -41 4 2 8 -3 8 -13 0 -10 -6 -18 -12 -18 -7 0 -10 5 -8 12 3 6
-5 21 -16 33 -12 12 -18 27 -15 32 3 6 -1 10 -10 10 -9 0 -13 5 -10 10 3 6 0
10 -7 10 -10 0 -10 2 1 9 7 5 22 6 32 4 15 -4 18 -1 13 11 -7 18 -20 21 -29 6
-3 -5 -13 -10 -22 -10 -9 0 -13 3 -10 7 4 3 0 14 -9 24 -9 10 -14 25 -11 34 4
8 1 15 -5 15 -6 0 -5 6 3 17 10 11 10 14 2 9 -8 -4 -13 -2 -13 4 0 7 -5 10
-11 8 -12 -4 -69 41 -69 53 0 4 11 10 24 13 13 3 27 13 30 22 5 13 1 15 -19
10 -17 -4 -25 -2 -25 7 0 20 12 28 25 17 9 -8 14 -5 18 10 3 11 0 23 -5 27 -6
3 -8 1 -4 -5 3 -6 2 -13 -4 -17 -5 -3 -10 2 -11 12 0 15 -2 14 -11 -4 -6 -13
-17 -23 -25 -23 -8 0 -12 4 -9 9 3 5 -1 11 -9 15 -9 3 -15 0 -15 -10 0 -8 7
-17 15 -20 17 -7 21 -34 5 -34 -5 0 -10 5 -10 11 0 18 -37 59 -45 51 -5 -4 -5
-2 -2 5 4 6 -5 25 -19 42 -14 17 -22 31 -17 31 12 0 53 -47 53 -60 0 -16 14
-12 29 9 11 15 20 17 37 11 17 -7 23 -5 27 10 7 26 -38 34 -55 9 -10 -14 -17
-16 -28 -9 -10 7 -11 12 -4 18 6 4 13 15 17 25 4 10 12 15 18 12 6 -4 3 8 -6
26 -14 26 -19 29 -26 17 -5 -8 -7 -25 -4 -37 2 -14 -2 -24 -11 -28 -17 -6 -39
17 -25 27 13 9 34 70 27 78 -9 8 -27 -19 -20 -30 3 -4 1 -15 -4 -24 -6 -11
-11 -13 -16 -5 -4 6 -2 11 3 11 12 0 10 28 -3 49 -6 9 -5 12 1 8 6 -4 13 2 16
13 6 23 -3 26 -21 8 -16 -16 -52 18 -55 50 -1 16 -4 18 -14 10 -9 -7 -13 -7
-13 1 0 6 -8 19 -17 29 -28 29 -44 62 -37 73 4 8 9 7 14 -1 6 -9 11 -6 20 10
11 20 10 22 -4 17 -10 -4 -16 -1 -16 8 0 22 4 30 13 27 10 -3 9 10 -3 28 -8
13 -10 12 -10 -2 0 -10 -7 -18 -16 -18 -10 0 -14 6 -10 15 3 8 1 15 -4 15 -6
0 -10 5 -10 11 0 7 -9 20 -21 30 -11 9 -20 20 -20 23 3 20 -1 26 -14 26 -8 0
-15 4 -15 9 0 12 18 9 48 -8 22 -12 22 -11 10 9 -7 11 -21 23 -30 26 -16 5
-22 16 -19 36 0 4 -11 3 -26 -3 -15 -6 -24 -7 -21 -3 11 10 -12 46 -26 41 -7
-3 -18 -2 -25 3 -11 6 -11 12 -1 31 11 19 10 24 0 27 -8 3 -25 17 -38 31 -19
20 -24 21 -18 7 5 -16 4 -17 -9 -6 -8 7 -13 16 -10 20 3 4 -2 13 -10 20 -8 7
-15 19 -15 27 0 9 -6 13 -15 9 -8 -3 -15 0 -15 6 0 6 -8 17 -17 24 -17 13 -17
13 2 15 13 1 10 4 -10 8 -16 4 -29 12 -27 19 1 7 -5 12 -13 12 -8 0 -15 7 -15
15 0 8 5 15 12 15 6 0 8 3 4 7 -4 5 -14 -1 -23 -12 -15 -20 -15 -20 -8 2 4 17
-1 30 -19 48 -14 14 -26 30 -26 35 0 6 -4 10 -10 10 -5 0 -10 7 -10 15 0 9 -6
18 -13 21 -7 2 -14 16 -15 30 -1 14 -11 33 -22 42 -12 10 -23 34 -26 57 -5 38
-4 39 10 21 9 -11 16 -15 16 -8 0 7 -9 17 -19 24 -11 6 -17 19 -14 27 4 14 3
14 -5 1 -9 -12 -15 -9 -34 15 -23 30 -25 33 -27 61 0 8 -5 12 -11 9 -5 -3 -12
6 -16 20 -3 14 -9 25 -13 25 -3 0 -12 10 -20 21 -11 18 -11 23 1 31 9 7 5 8
-13 5 -21 -3 -28 2 -38 25 -7 16 -15 27 -17 25 -6 -6 15 -70 26 -77 17 -10 24
-63 8 -57 -7 2 -12 11 -12 20 1 9 -2 15 -6 12 -5 -3 -12 4 -15 16 -4 11 -16
30 -27 41 -15 15 -19 28 -14 52 4 20 3 26 -3 17 -11 -16 -29 -7 -42 22 -5 12
-18 36 -29 52 -54 83 -64 110 -62 165 2 38 0 50 -7 40 -5 -8 -7 -18 -4 -23 3
-5 0 -8 -6 -6 -7 3 -11 7 -9 11 2 3 -5 15 -15 25 -9 11 -14 23 -10 26 3 4 2 7
-3 7 -5 0 -10 10 -11 22 -1 11 -6 24 -10 27 -21 15 -73 92 -73 106 0 11 -5 15
-16 11 -12 -5 -14 -1 -10 17 3 12 3 16 0 10 -3 -7 -12 -13 -20 -13 -9 0 -12 5
-9 10 3 6 -1 10 -9 10 -9 0 -16 4 -16 9 0 5 -3 18 -7 28 -6 17 -6 17 14 1 23
-21 40 -24 24 -5 -6 8 -8 17 -4 20 3 4 1 13 -5 20 -7 8 -9 17 -5 20 3 4 -3 7
-15 7 -12 0 -22 6 -22 13 0 7 -11 29 -25 49 -14 20 -25 43 -25 51 0 8 -9 22
-20 32 -11 10 -20 23 -20 29 0 10 -8 21 -67 96 -13 15 -23 34 -23 42 0 7 -13
25 -30 39 -24 22 -30 24 -33 10 -3 -9 -5 -3 -6 12 -1 19 -5 26 -13 21 -10 -6
-10 -4 0 7 16 18 15 36 -3 36 -8 0 -12 -4 -9 -9 3 -4 -2 -8 -10 -8 -10 0 -16
9 -16 25 0 14 -4 25 -9 25 -12 0 -21 39 -10 46 5 3 9 10 9 16 0 6 -6 6 -15 -2
-13 -11 -14 -10 -9 5 5 13 4 16 -4 11 -8 -5 -10 -1 -5 10 4 11 3 15 -4 11 -7
-5 -9 1 -5 15 3 14 2 19 -6 14 -7 -4 -12 -1 -12 8 0 8 -6 21 -12 28 -7 7 -20
27 -28 43 -13 26 -36 61 -70 102 -6 7 -10 16 -10 21 0 5 -7 16 -16 23 -9 7
-20 22 -25 34 -15 34 -33 58 -61 83 -16 13 -28 30 -28 37 0 7 -9 15 -20 18
-11 3 -20 13 -20 24 0 14 -2 15 -9 4 -13 -20 -30 -5 -24 20 5 19 4 20 -15 10
-23 -12 -36 -2 -27 21 6 16 -45 66 -61 61 -9 -3 -57 31 -54 39 1 2 -1 10 -3
18 -16 51 -18 53 -29 42 -14 -14 -48 2 -48 23 0 8 -11 17 -25 21 -15 4 -25 13
-25 24 0 11 -5 22 -10 25 -6 4 -7 11 -4 17 4 7 2 8 -4 4 -7 -4 -16 3 -21 18
-6 13 -18 27 -28 30 -22 7 -56 60 -45 71 4 5 2 5 -4 2 -7 -4 -16 -1 -22 6 -11
13 -12 17 -12 42 0 8 -7 15 -15 15 -22 0 -84 64 -88 91 -2 13 -9 25 -16 27 -9
3 -9 7 0 18 10 12 9 13 -6 8 -11 -5 -16 -3 -12 2 3 6 -8 23 -25 40 l-31 29 7
-30 c4 -17 14 -34 22 -38 8 -4 14 -12 14 -18 0 -5 -13 3 -30 18 -22 19 -30 35
-31 62 0 20 -4 45 -9 56 -9 19 -9 19 -16 -2 -9 -31 -32 -29 -47 4 -6 15 -20
36 -29 45 -10 10 -18 29 -18 43 0 18 -4 23 -15 19 -11 -5 -15 1 -15 20 0 16
-6 26 -15 26 -8 0 -15 9 -15 19 0 11 -3 27 -6 35 -6 15 -8 15 -21 -1 -14 -17
-14 -17 -10 5 3 13 0 22 -6 22 -8 0 -8 3 -2 8 6 4 17 16 25 27 14 19 14 20 -6
3 -27 -23 -31 -23 -36 7 -3 14 -1 25 3 25 5 0 9 5 9 11 0 6 -6 9 -13 6 -11 -4
-12 3 -6 36 4 24 3 46 -2 52 -10 11 -10 12 -14 -38 -4 -42 -15 -64 -15 -29 0
12 -4 22 -10 22 -5 0 -7 -13 -3 -30 4 -20 2 -30 -7 -30 -7 0 -10 8 -7 20 3 11
1 20 -4 20 -19 0 -8 21 17 31 15 5 25 12 22 15 -3 2 -17 0 -32 -5 -21 -9 -26
-8 -26 4 0 8 5 15 11 15 8 0 8 5 -1 15 -7 8 -9 15 -4 15 4 0 3 5 -4 12 -15 15
-16 48 -2 48 6 0 10 5 10 11 0 6 -7 9 -15 5 -11 -4 -15 1 -15 19 0 13 5 27 10
30 6 4 8 11 5 16 -4 5 0 9 8 9 8 0 17 7 21 15 4 10 -1 15 -14 15 -14 0 -18 5
-13 17 4 10 2 14 -4 10 -6 -4 -13 0 -16 7 -3 8 -1 16 4 18 6 2 -1 17 -15 33
-18 21 -22 31 -13 37 9 6 8 8 -3 8 -14 0 -41 32 -39 46 0 3 -9 13 -20 23 -15
14 -17 21 -9 29 9 9 8 12 -4 12 -9 0 -19 7 -22 16 -10 26 -7 36 9 31 8 -4 17
-1 21 5 4 6 3 8 -4 4 -5 -3 -12 0 -15 6 -3 10 -8 10 -21 -1 -15 -13 -17 -12
-12 12 3 19 0 27 -9 27 -7 0 -16 -10 -18 -22 l-4 -23 -2 23 c0 12 -5 22 -11
22 -6 0 -8 19 -5 45 2 25 0 45 -5 45 -6 0 -9 -5 -8 -11 6 -23 -19 -19 -32 5
-7 14 -17 23 -23 19 -6 -4 -7 4 -3 22 6 25 5 27 -8 16 -13 -11 -17 -10 -22 3
-4 9 -4 32 -1 50 6 37 0 49 -26 59 -10 4 -15 12 -12 18 5 6 0 9 -11 8 -26 -5
-44 8 -44 32 0 10 -4 19 -10 19 -5 0 -10 7 -10 15 0 8 -4 15 -10 15 -5 0 -10
7 -10 15 0 8 -9 15 -20 15 -14 0 -20 7 -20 24 0 26 -24 51 -40 41 -5 -3 -10 0
-10 8 0 8 -7 20 -15 27 -8 7 -14 18 -13 24 3 17 -12 56 -23 56 -5 0 -9 7 -9
15 0 8 5 15 11 15 5 0 7 5 4 10 -10 17 -25 11 -25 -10 0 -33 -35 -20 -41 15
-5 27 8 45 26 38 8 -3 15 0 15 6 0 6 5 11 11 11 6 0 8 -9 4 -20 -4 -11 -2 -20
4 -20 10 0 12 6 15 43 1 6 6 15 11 19 6 4 1 8 -10 8 -17 0 -17 2 -5 10 12 8 9
12 -17 22 -37 14 -40 23 -17 50 10 10 18 39 20 70 1 29 0 40 -2 25 -4 -22 -10
-27 -24 -22 -10 3 -21 1 -25 -5 -4 -7 -12 -7 -24 0 -10 5 -21 6 -25 3 -3 -3
-6 -2 -6 4 0 6 7 13 15 17 27 10 17 27 -12 20 -26 -6 -27 -5 -9 8 25 20 13 37
-24 36 -40 -1 -43 4 -26 38 8 16 18 38 22 49 5 15 9 9 18 -29 10 -46 36 -76
36 -42 0 10 6 13 15 10 9 -4 15 -1 15 7 0 18 -20 49 -20 32 0 -6 -8 -11 -18
-10 -13 1 -17 7 -14 23 2 13 -2 36 -10 52 -14 28 -14 29 10 24 16 -3 29 -15
36 -33 6 -16 16 -29 23 -29 16 0 16 12 1 45 -9 20 -9 28 2 38 8 7 10 7 7 1 -9
-15 46 -15 55 0 5 7 8 6 8 -4 0 -9 -6 -22 -12 -29 -7 -8 -8 -11 -2 -8 12 7 35
-58 28 -78 -5 -12 13 -32 21 -23 2 2 0 20 -4 41 -7 27 -6 37 4 37 7 0 11 -10
9 -27 -2 -16 -1 -20 2 -10 3 9 9 15 14 12 4 -2 8 13 8 35 1 42 -5 48 -27 28
-11 -11 -11 -9 0 9 11 19 9 26 -16 60 -48 64 -168 184 -210 211 -49 31 -232
206 -312 298 -55 64 -213 233 -241 259 -19 16 -39 30 -45 30 -7 1 -11 6 -9 13
3 15 -35 58 -44 50 -3 -4 -1 -15 5 -27 13 -23 9 -26 -42 -35 -39 -7 -39 -7
-32 22 7 35 -20 67 -35 42 -14 -22 -20 -7 -11 26 5 20 13 28 27 27 10 -1 13 0
7 3 -7 3 -13 10 -13 15 0 6 -21 32 -47 59 -70 71 -131 148 -199 253 -25 37
-46 67 -47 66 -1 -1 -46 -47 -100 -102z m367 -282 c-4 -8 -8 -15 -10 -15 -2 0
-4 7 -4 15 0 8 4 15 10 15 5 0 7 -7 4 -15z m611 -802 c-2 -7 0 -13 4 -13 12 0
2 -38 -12 -47 -6 -3 -7 -1 -3 5 3 6 0 29 -7 51 -13 38 -13 39 5 28 10 -7 16
-18 13 -24z m130 -11 c-3 -3 -11 0 -18 7 -9 10 -8 11 6 5 10 -3 15 -9 12 -12z
m38 -41 c-4 -3 -11 -10 -15 -15 -4 -4 -6 1 -5 12 1 12 6 18 15 15 7 -3 10 -9
5 -12z m-53 -36 c0 -7 12 -18 28 -23 15 -6 21 -11 13 -11 -11 -1 -11 -4 -1
-16 7 -8 9 -15 5 -15 -4 0 -2 -7 5 -15 9 -11 9 -15 1 -15 -7 0 -9 -4 -6 -10 3
-5 2 -10 -4 -10 -5 0 -13 5 -16 10 -3 6 -1 10 5 10 8 0 7 6 -1 21 -8 16 -13
18 -19 9 -8 -13 -30 -5 -30 11 0 6 4 7 10 4 5 -3 3 10 -5 29 -19 44 -19 47 0
40 8 -4 15 -12 15 -19z m-14 -98 c14 17 15 16 11 -9 -3 -17 0 -25 6 -21 6 4 8
0 4 -10 -3 -9 -1 -17 6 -20 6 -2 3 -6 -7 -10 -10 -4 -15 -3 -11 3 3 6 1 10 -4
10 -6 0 -11 -4 -11 -10 0 -5 -9 -2 -19 7 -11 9 -18 20 -15 25 3 4 -2 5 -10 2
-9 -3 -16 -1 -16 6 0 6 -4 8 -10 5 -5 -3 -10 -2 -10 3 0 6 7 13 15 16 9 3 21
20 27 38 l12 33 9 -43 c8 -41 10 -42 23 -25z m149 54 c3 -5 0 -13 -6 -17 -8
-4 -7 -9 2 -16 12 -8 12 -9 0 -6 -8 2 -15 14 -16 26 -2 22 9 29 20 13z m-205
-206 c-7 -9 -15 -13 -17 -11 -7 7 7 26 19 26 6 0 6 -6 -2 -15z m567 -897 c-3
-8 -6 -5 -6 6 -1 11 2 17 5 13 3 -3 4 -12 1 -19z m51 -103 c-3 -3 -9 2 -12 12
-6 14 -5 15 5 6 7 -7 10 -15 7 -18z m42 -12 c0 -25 -15 -12 -17 14 -1 19 1 22
8 12 5 -8 9 -20 9 -26z m60 -88 c-14 -17 -5 -36 15 -29 12 5 12 1 2 -20 -7
-14 -16 -26 -21 -26 -5 0 -7 3 -3 6 3 3 1 18 -4 32 -11 28 -6 52 12 52 8 0 8
-4 -1 -15z m79 -165 c4 0 12 5 19 12 8 8 12 8 12 1 0 -6 -7 -16 -15 -23 -18
-15 -45 7 -36 30 4 12 6 12 9 -2 2 -10 7 -18 11 -18z m-30 -41 c8 -22 7 -29
-1 -27 -6 2 -12 16 -14 31 -4 35 2 34 15 -4z m74 4 c-11 -31 -15 -35 -24 -22
-4 8 -3 19 3 26 15 19 28 16 21 -4z m7 -180 c-1 -31 -3 -35 -11 -20 -6 9 -7
26 -4 37 10 30 15 24 15 -17z m80 -147 c0 -2 -7 -9 -15 -16 -13 -11 -14 -10
-9 4 5 14 24 23 24 12z m-1580 -50 c0 -9 -30 -14 -35 -6 -4 6 3 10 14 10 12 0
21 -2 21 -4z m-100 -16 c0 -5 -4 -10 -10 -10 -5 0 -10 5 -10 10 0 6 5 10 10
10 6 0 10 -4 10 -10z m-271 -30 c-6 -16 -15 -30 -20 -30 -5 0 -9 -5 -9 -11 0
-8 4 -9 13 0 8 6 17 8 20 4 6 -6 11 20 8 40 -2 12 6 8 20 -10 10 -11 10 -14 2
-9 -9 5 -13 0 -13 -15 l0 -22 27 24 c14 13 23 18 19 12 -5 -8 -1 -13 11 -14
10 0 31 -2 47 -3 16 -1 30 4 34 12 2 7 13 12 23 9 13 -3 16 0 12 12 -5 12 -3
13 7 4 7 -6 19 -9 26 -6 9 3 14 -2 15 -13 0 -18 1 -18 8 0 6 15 20 19 82 21
40 1 87 6 103 10 l28 8 -17 -27 c-9 -14 -21 -24 -25 -21 -5 3 -11 1 -15 -4 -3
-6 4 -8 17 -4 23 5 65 10 167 18 53 4 81 -8 81 -35 0 -7 8 -9 19 -5 11 3 22 2
25 -4 3 -5 -6 -13 -20 -18 -25 -8 -25 -10 -10 -25 9 -9 16 -23 16 -32 0 -8 5
-18 10 -21 15 -9 25 24 11 38 -6 6 -11 16 -11 22 1 14 40 -37 40 -53 0 -6 -5
-11 -11 -10 -20 5 -20 -18 0 -43 l19 -24 -5 29 c-4 20 -2 27 6 22 6 -4 11 -13
11 -19 0 -7 12 -34 25 -62 14 -27 25 -56 25 -62 0 -7 5 -13 10 -13 6 0 10 -5
10 -12 0 -21 51 -119 60 -113 4 3 6 -4 3 -15 -3 -12 1 -28 10 -38 8 -9 18 -27
21 -39 4 -13 11 -23 15 -23 5 0 11 -14 15 -31 4 -21 10 -28 18 -23 7 4 10 4 7
0 -4 -4 22 -65 57 -136 35 -70 64 -135 64 -144 0 -8 5 -18 10 -21 18 -11 51
-85 44 -97 -4 -7 -3 -8 4 -4 8 5 12 0 12 -12 0 -11 7 -25 15 -32 8 -7 12 -17
8 -23 -4 -6 0 -8 10 -4 9 3 19 1 23 -5 4 -7 3 -8 -4 -4 -18 11 -15 -29 3 -44
12 -10 13 -16 3 -27 -9 -11 -8 -13 3 -11 10 2 13 -5 11 -24 -1 -16 2 -28 8
-28 6 0 8 5 4 12 -4 7 -3 8 4 4 7 -4 12 -2 12 4 0 6 5 8 12 4 9 -6 9 -9 0 -12
-16 -5 -15 -39 1 -46 10 -5 10 -7 0 -12 -20 -9 -15 -20 7 -20 13 0 19 5 15 14
-3 8 0 10 8 5 6 -4 15 -8 19 -8 3 0 10 -4 15 -9 4 -5 3 -6 -4 -2 -14 8 -55
-33 -46 -47 4 -6 11 -3 18 6 7 9 15 13 19 9 4 -4 14 1 21 12 13 17 14 17 13
-5 -1 -13 -5 -29 -9 -35 -11 -14 19 -56 33 -48 7 5 8 2 4 -5 -6 -9 -12 -9 -25
3 -10 9 -21 13 -26 9 -4 -5 -5 -1 0 7 6 12 5 12 -5 3 -15 -13 -5 -33 17 -33 9
0 13 -6 9 -15 -4 -11 0 -15 11 -13 9 2 18 -2 20 -9 3 -7 -3 -9 -16 -6 -12 3
-21 1 -21 -5 0 -12 29 -24 41 -16 5 3 9 -2 9 -10 0 -9 6 -16 13 -16 8 0 8 -3
-2 -9 -11 -7 -10 -18 11 -58 13 -27 30 -47 36 -45 7 2 12 -1 12 -7 0 -6 5 -10
11 -9 6 2 14 -4 16 -12 4 -13 3 -13 -6 0 -6 9 -11 10 -11 3 0 -6 -3 -19 -7
-29 -5 -13 -3 -15 7 -9 9 6 12 4 8 -6 -4 -10 1 -15 12 -15 10 0 16 6 13 13 -3
7 0 13 6 13 6 0 11 -9 11 -20 0 -11 -5 -20 -11 -20 -5 0 -8 -4 -5 -9 4 -5 0
-12 -6 -14 -8 -3 -6 -6 5 -6 9 -1 17 -7 17 -13 1 -7 10 -2 20 11 12 13 20 18
20 10 0 -17 -15 -41 -24 -40 -19 3 -28 0 -22 -6 4 -5 12 -9 17 -9 5 -1 13 -2
18 -3 5 0 8 -12 6 -26 -1 -14 2 -26 6 -26 5 -1 14 -3 19 -4 6 -1 15 -3 20 -4
6 0 10 -4 9 -8 -2 -15 13 -53 21 -53 4 0 18 -24 30 -52 12 -29 28 -60 35 -68
7 -8 18 -32 25 -52 6 -21 16 -38 21 -38 5 0 9 -5 9 -11 0 -19 112 -239 122
-239 5 0 7 -4 4 -9 -3 -5 1 -14 10 -21 10 -9 13 -22 9 -40 -4 -18 -1 -31 10
-40 9 -8 24 -31 32 -52 9 -21 20 -35 26 -31 5 3 7 1 3 -5 -8 -13 14 -63 25
-56 5 3 6 -2 3 -10 -4 -9 -1 -16 6 -16 7 0 10 -7 6 -16 -5 -13 -2 -15 14 -11
21 5 28 -7 10 -18 -15 -9 -12 -21 8 -41 9 -10 18 -22 18 -28 1 -6 2 -16 3 -23
1 -7 9 -10 19 -7 12 4 13 3 4 -3 -10 -8 -10 -15 3 -39 8 -16 15 -35 15 -41 0
-7 5 -13 10 -13 6 0 10 -11 10 -25 0 -15 5 -24 13 -22 6 1 12 -7 12 -17 0 -11
6 -21 13 -24 6 -2 12 1 12 8 0 6 5 8 13 3 6 -4 20 -6 30 -5 9 2 17 -2 17 -8 0
-7 7 -10 15 -6 18 7 20 -15 3 -33 -11 -11 -10 -14 0 -18 6 -3 10 -9 6 -14 -3
-5 2 -12 10 -15 9 -3 13 -10 10 -15 -3 -5 0 -9 7 -9 7 0 9 -3 6 -7 -10 -10 14
-34 27 -26 6 4 6 0 -2 -9 -9 -11 -10 -23 -2 -42 10 -28 25 -34 33 -13 3 6 4
-5 2 -26 -2 -40 11 -59 26 -36 7 9 8 5 3 -13 -3 -16 0 -35 10 -50 8 -12 14
-25 14 -28 -1 -3 6 -16 14 -30 9 -14 24 -44 33 -67 l17 -42 63 3 c48 2 65 0
69 -11 4 -10 1 -13 -13 -8 -13 4 -19 1 -17 -8 3 -21 34 -49 46 -42 5 3 10 1
10 -5 0 -6 5 -8 12 -4 7 4 8 3 4 -5 -10 -16 2 -49 20 -53 17 -3 48 -78 33 -78
-5 0 -9 -8 -8 -17 0 -11 3 -13 6 -5 9 23 20 12 58 -62 28 -55 36 -82 32 -103
-4 -15 -4 -22 -1 -15 10 22 20 12 39 -40 10 -29 24 -64 31 -77 7 -14 11 -28 8
-33 -3 -4 -1 -8 4 -8 6 0 8 -9 5 -20 -4 -17 -2 -19 13 -13 17 6 17 5 5 -10
-12 -15 -11 -17 3 -17 17 0 18 -1 20 -41 2 -26 1 -26 -20 -10 -12 9 -20 18
-18 20 6 6 -16 41 -26 41 -10 0 -4 -18 35 -105 13 -27 26 -60 30 -72 3 -13 11
-23 16 -23 6 0 8 -4 4 -9 -3 -5 0 -13 6 -17 6 -3 15 -1 19 6 5 8 9 7 14 -6 3
-9 4 -19 1 -22 -3 -3 -5 0 -5 7 0 7 -5 9 -10 6 -8 -5 -8 -11 0 -20 8 -10 7
-15 -2 -19 -7 -3 0 -4 15 -2 26 3 28 1 23 -20 -3 -12 -2 -26 4 -29 6 -3 7 1 4
9 -11 27 5 17 21 -13 19 -37 11 -65 -15 -51 -17 9 -17 7 -7 -23 14 -36 26 -49
42 -39 5 3 3 -5 -6 -18 -12 -19 -16 -53 -17 -145 -1 -146 0 -137 -11 -131 -13
8 -23 -41 -16 -75 5 -23 4 -28 -8 -23 -11 4 -19 -6 -27 -32 -7 -21 -26 -62
-42 -91 -16 -29 -27 -57 -24 -62 3 -5 -1 -14 -9 -21 -8 -7 -12 -17 -9 -22 3
-5 -1 -17 -9 -26 -7 -9 -17 -24 -21 -32 -16 -38 -74 -134 -104 -173 -29 -36
-141 -199 -290 -417 -57 -84 -130 -177 -207 -265 -33 -38 -92 -113 -130 -165
-39 -52 -105 -137 -149 -190 -43 -52 -125 -165 -182 -252 -56 -86 -140 -207
-186 -270 -79 -106 -273 -402 -383 -583 -27 -44 -90 -143 -140 -220 -95 -145
-232 -379 -279 -475 -45 -94 -88 -164 -163 -268 -40 -56 -73 -108 -73 -116 0
-9 -8 -16 -18 -16 -10 0 -28 -10 -41 -21 -17 -16 -28 -19 -44 -12 -33 13 -66
4 -83 -23 -13 -19 -20 -22 -34 -14 -22 12 -64 13 -74 3 -14 -14 -81 -1 -103
19 -12 11 -36 21 -53 23 -18 1 -35 6 -39 12 -3 5 -23 17 -43 26 -21 10 -38 24
-38 32 0 7 -8 16 -19 20 -22 7 -101 98 -101 117 0 12 -59 86 -139 174 -63 69
-147 177 -182 235 -18 30 -62 90 -98 133 -36 44 -91 112 -121 151 -30 40 -89
117 -131 171 -41 54 -92 124 -111 154 -35 54 -178 225 -326 387 -116 129 -160
187 -322 428 -84 123 -180 257 -215 297 -164 187 -207 239 -267 323 -35 50
-82 119 -103 155 -21 36 -50 85 -65 110 -14 25 -33 56 -41 69 -8 14 -18 30
-22 35 -16 22 -49 84 -98 186 -28 58 -61 127 -75 153 -13 27 -24 55 -24 63 0
8 -4 14 -10 14 -5 0 -10 9 -10 19 0 11 -4 21 -9 23 -5 2 -22 57 -39 123 -26
106 -29 133 -26 235 5 137 13 220 30 290 3 14 7 34 9 45 1 11 10 37 18 57 13
32 14 38 1 49 -8 6 -14 19 -15 28 0 10 -2 11 -6 4 -2 -7 -9 -13 -15 -13 -18 0
-1 25 18 26 56 3 57 3 44 19 -9 11 -9 22 -1 46 6 18 9 34 7 36 -2 3 -9 -12
-16 -32 -7 -20 -17 -34 -23 -32 -20 6 -19 25 3 47 11 11 18 26 14 32 -5 7 0 9
14 6 26 -7 28 0 6 16 -13 10 -12 15 10 41 14 16 23 32 20 37 -5 8 11 12 30 9
5 -1 4 5 -3 13 -7 8 -9 21 -5 27 5 9 10 7 16 -7 5 -13 6 -10 3 11 -5 24 0 36
20 55 14 13 25 33 24 44 0 12 -3 15 -6 9 -2 -7 -9 -13 -14 -13 -6 0 -5 8 1 20
6 11 15 18 20 15 5 -3 11 -1 15 5 3 5 1 10 -6 10 -8 0 -9 12 -4 43 4 23 7 50
7 60 -1 9 2 16 6 13 4 -2 8 10 9 27 2 18 10 38 20 44 10 8 12 13 5 13 -10 0
-10 5 0 23 6 12 13 29 15 38 1 8 9 29 18 45 8 16 15 33 15 37 0 5 6 23 14 40
8 18 22 53 32 79 11 27 23 46 29 45 14 -5 46 39 50 66 7 57 18 105 30 132 7
17 18 41 23 55 6 14 29 70 52 125 23 55 59 130 81 166 21 36 39 69 39 75 1 5
9 27 20 49 11 22 19 47 20 55 0 9 7 25 15 36 8 12 11 24 8 28 -3 3 -1 6 5 6 6
0 9 7 6 15 -4 9 -1 15 7 15 8 0 22 19 33 43 10 23 20 37 23 30 2 -6 -7 -33
-21 -60 -29 -53 -33 -71 -12 -54 7 6 21 31 31 56 9 25 21 45 26 45 5 0 8 3 7
8 -4 12 26 82 34 82 5 0 8 8 6 18 -2 9 2 16 9 15 7 -2 10 4 6 13 -3 9 -1 14 7
12 7 -2 15 3 18 11 3 8 0 11 -7 7 -6 -4 -11 -3 -11 3 0 5 8 12 18 15 11 4 26
28 37 59 10 28 22 57 26 63 5 6 6 14 2 17 -3 4 -1 7 7 7 10 0 10 3 0 16 -11
12 -11 15 0 12 8 -2 15 2 15 7 2 15 33 85 56 128 11 20 17 37 14 37 -4 0 2 16
14 35 11 20 16 37 10 40 -5 4 -13 -4 -18 -17 -14 -33 -13 -7 0 31 6 17 16 31
21 31 7 0 6 -5 -1 -14 -8 -9 -8 -16 -2 -20 6 -4 17 7 26 24 8 16 12 30 9 30
-4 0 1 9 11 20 10 11 14 20 10 20 -4 0 0 9 10 20 12 14 21 17 25 9 5 -6 9 -3
12 9 4 15 2 19 -8 15 -18 -7 -13 12 35 119 12 26 21 52 21 56 0 5 7 22 15 39
17 35 32 102 19 90 -4 -4 -9 -15 -10 -23 -5 -30 -14 -45 -24 -39 -14 9 -12 -8
3 -24 8 -10 9 -12 0 -7 -8 4 -14 -5 -19 -28 -3 -20 -12 -40 -19 -46 -8 -6 -11
-18 -8 -26 3 -8 1 -14 -5 -14 -10 0 -24 -33 -26 -61 -1 -8 -8 -23 -18 -32 -13
-13 -18 -14 -27 -3 -14 16 -4 26 17 19 16 -5 16 -4 1 11 -15 16 -15 21 3 59
11 22 21 48 23 56 1 8 7 17 13 19 7 2 10 8 7 13 -3 4 5 32 18 61 99 217 152
347 144 354 -3 3 10 50 29 104 18 55 31 105 28 113 -3 8 2 20 10 27 9 7 13 16
10 21 -6 10 59 169 82 204 8 11 14 28 14 38 0 9 7 20 15 23 8 4 12 11 8 17 -4
6 0 8 9 4 11 -4 14 -1 11 12 -2 10 3 23 12 31 13 11 15 10 9 -6 -6 -18 -5 -17
9 1 12 15 12 21 3 23 -8 2 -11 14 -8 33 3 20 0 34 -9 40 -10 6 -10 9 -2 9 12
0 73 109 73 130 0 5 -7 10 -15 10 -8 0 -12 6 -9 14 3 8 1 17 -5 21 -16 9 -13
28 2 22 8 -3 20 3 27 13 8 11 18 16 22 13 5 -3 12 4 15 15 5 22 29 36 44 26 5
-3 9 0 9 5 0 6 -6 11 -12 11 -7 1 2 7 21 15 39 18 44 18 36 5 -3 -5 -1 -10 5
-10 7 0 10 6 7 14 -3 8 2 20 10 28 15 11 16 10 10 -7 -5 -14 0 -10 17 10 14
17 25 26 26 21 0 -5 9 3 21 18 11 14 28 26 36 26 9 0 22 8 30 18 10 12 16 14
19 5 3 -7 12 -13 20 -13 9 0 13 4 10 8 -3 5 10 9 28 10 18 1 44 6 58 11 14 5
29 7 32 4 3 -3 11 -1 18 5 7 5 51 9 98 8 74 -1 150 11 220 36 105 37 112 37
99 -2z m696 -30 c3 -5 1 -10 -4 -10 -6 0 -11 5 -11 10 0 6 2 10 4 10 3 0 8 -4
11 -10z m96 -40 c10 -22 14 -40 10 -40 -8 0 -41 71 -41 87 0 13 13 -8 31 -47z
m43 2 c14 -21 26 -43 26 -50 0 -6 9 -27 19 -46 11 -19 21 -43 23 -53 2 -10 11
-27 21 -38 10 -10 15 -25 13 -32 -3 -7 -1 -15 5 -18 11 -7 42 -74 44 -92 0 -7
6 -18 13 -25 6 -6 12 -17 12 -22 0 -10 32 -77 68 -143 28 -53 32 -64 27 -73
-3 -5 1 -12 8 -17 17 -9 32 -53 20 -53 -9 0 -67 106 -68 125 -1 6 -14 35 -30
65 -16 30 -30 61 -31 68 -1 7 -10 25 -20 40 -10 15 -19 32 -20 37 -5 28 -67
148 -71 138 -3 -7 -9 -13 -14 -13 -11 0 -42 60 -35 67 3 4 12 -9 19 -27 8 -18
17 -28 21 -22 6 11 -32 107 -71 180 -29 52 -15 55 21 4z m-1484 -11 c0 -5 -7
-11 -15 -15 -15 -5 -20 5 -8 17 9 10 23 9 23 -2z m1489 -95 c-2 -20 -2 -20 -6
2 -2 12 -8 22 -13 22 -4 0 -11 8 -14 17 -6 15 -4 15 14 -2 11 -10 19 -28 19
-39z m171 -16 c0 -5 -2 -10 -4 -10 -3 0 -8 5 -11 10 -3 6 -1 10 4 10 6 0 11
-4 11 -10z m-23 -32 c-3 -8 -6 -5 -6 6 -1 11 2 17 5 13 3 -3 4 -12 1 -19z m47
-4 c3 -8 2 -12 -4 -9 -6 3 -10 10 -10 16 0 14 7 11 14 -7z m-60 -33 c-4 -3 -9
0 -11 7 -3 6 -10 9 -15 6 -7 -4 -8 -2 -4 5 6 9 11 9 22 0 8 -6 12 -15 8 -18z
m45 6 c8 -10 7 -14 -4 -14 -8 0 -15 6 -15 14 0 7 2 13 4 13 2 0 9 -6 15 -13z
m18 -40 c-1 -32 4 -48 12 -42 5 3 13 0 17 -6 4 -8 3 -9 -4 -5 -16 10 -15 -5 2
-30 22 -31 63 -138 58 -152 -5 -17 -32 -15 -32 4 0 9 -5 12 -12 8 -7 -4 -8 -3
-4 4 4 6 13 9 21 5 8 -3 15 0 15 6 0 6 -3 10 -7 10 -28 -4 -45 5 -59 32 -8 17
-11 28 -5 24 6 -3 4 9 -5 29 -10 19 -22 32 -27 29 -6 -3 -7 -1 -3 5 8 13 -14
63 -24 57 -4 -3 -7 3 -6 13 2 28 64 37 63 9z m-110 -59 c7 -15 8 -28 3 -28 -8
0 -51 85 -49 99 0 10 33 -40 46 -71z m48 -108 c3 -5 3 -10 -2 -10 -9 0 -33 48
-33 64 0 6 7 -1 14 -16 8 -16 18 -32 21 -38z m25 -52 c0 -5 -7 -3 -15 6 -8 8
-15 18 -15 22 0 3 7 1 15 -6 8 -7 15 -17 15 -22z m1304 16 c9 -22 8 -24 -9
-18 -8 4 -15 12 -15 20 0 19 16 18 24 -2z m-1270 -93 c-5 -6 -33 31 -33 44 -1
6 8 -1 19 -15 10 -14 17 -27 14 -29z m100 9 c-20 -20 -20 -20 -22 6 -1 14 2
23 8 19 6 -3 10 -1 10 6 0 10 3 10 12 1 10 -10 8 -17 -8 -32z m1232 15 c13
-14 20 -25 16 -25 -13 0 -52 31 -52 41 0 15 12 10 36 -16z m-1206 -24 c0 -12
-20 -25 -27 -18 -7 7 6 27 18 27 5 0 9 -4 9 -9z m-100 -42 c0 -5 -4 -9 -10 -9
-5 0 -10 7 -10 16 0 8 5 12 10 9 6 -3 10 -10 10 -16z m107 0 c-4 -17 -3 -19 6
-10 6 6 16 11 23 11 16 0 26 -28 12 -36 -7 -4 -8 -3 -4 4 4 7 1 12 -9 12 -13
0 -14 -4 -5 -20 6 -11 20 -20 30 -20 11 0 20 -5 20 -11 0 -6 -7 -9 -15 -6 -8
4 -17 2 -20 -3 -4 -6 -1 -10 6 -10 6 0 9 -8 6 -20 -5 -20 2 -24 34 -21 9 1 19
-6 23 -15 5 -13 2 -15 -14 -11 -23 6 -24 4 -10 -21 5 -9 16 -35 25 -57 9 -22
23 -55 31 -74 8 -18 13 -36 10 -38 -6 -7 -52 40 -48 51 2 5 -4 16 -13 26 -13
14 -13 20 -4 26 9 5 6 10 -9 15 -15 6 -19 13 -15 30 4 15 3 20 -6 15 -6 -4
-11 -4 -10 1 4 16 -13 63 -23 63 -6 0 -7 7 -4 16 4 10 2 13 -6 8 -7 -5 -9 1
-6 20 5 23 3 24 -10 14 -10 -9 -13 -9 -9 -1 4 6 2 24 -3 39 -8 21 -8 29 2 36
19 12 21 10 15 -13z m-93 -51 l16 -33 -20 24 c-11 13 -20 27 -20 32 0 17 9 9
24 -23z m1416 -3 c30 -32 14 -32 -24 0 -18 16 -24 25 -14 25 8 0 25 -11 38
-25z m-1230 -55 c0 -5 -7 -7 -15 -4 -8 4 -15 8 -15 10 0 2 7 4 15 4 8 0 15 -4
15 -10z m75 -200 c3 -5 1 -10 -4 -10 -6 0 -11 5 -11 10 0 6 2 10 4 10 3 0 8
-4 11 -10z m1515 -4 c0 -2 -7 -7 -16 -10 -8 -3 -12 -2 -9 4 6 10 25 14 25 6z
m-1457 -36 c3 -11 1 -18 -4 -14 -5 3 -9 12 -9 20 0 20 7 17 13 -6z m-55 -35
c-3 -13 -1 -22 3 -19 4 2 13 -5 19 -16 9 -16 8 -20 -5 -20 -8 0 -15 4 -15 10
0 5 -7 7 -16 3 -14 -5 -15 -3 -5 16 10 17 9 22 -4 27 -18 7 -10 24 12 24 11 0
14 -7 11 -25z m82 -16 c0 -6 -4 -7 -10 -4 -5 3 -10 11 -10 16 0 6 5 7 10 4 6
-3 10 -11 10 -16z m33 -83 c-7 -11 -33 22 -33 42 0 9 7 6 19 -9 11 -13 17 -28
14 -33z m-83 24 c0 -5 -7 -7 -15 -4 -8 4 -15 8 -15 10 0 2 7 4 15 4 8 0 15 -4
15 -10z m11 -38 c-7 -2 -18 1 -23 6 -8 8 -4 9 13 5 13 -4 18 -8 10 -11z m92
-27 c-7 -21 -13 -19 -13 6 0 11 4 18 10 14 5 -3 7 -12 3 -20z m-57 -32 c-10
-11 -19 -7 -22 10 -2 15 0 16 12 6 8 -6 12 -14 10 -16z m-136 7 c0 -5 -4 -10
-10 -10 -5 0 -10 5 -10 10 0 6 5 10 10 10 6 0 10 -4 10 -10z m160 -296 c0 -8
-4 -12 -10 -9 -5 3 -10 10 -10 16 0 5 5 9 10 9 6 0 10 -7 10 -16z m20 -84 c0
-5 -2 -10 -4 -10 -3 0 -8 5 -11 10 -3 6 -1 10 4 10 6 0 11 -4 11 -10z m14 -36
c10 -25 -1 -29 -14 -5 -6 12 -7 21 -1 21 5 0 12 -7 15 -16z m34 -14 c7 -11 8
-20 2 -20 -5 0 -14 9 -20 20 -6 11 -7 20 -3 20 5 0 14 -9 21 -20z m1847 -70
c3 -5 2 -10 -4 -10 -5 0 -13 5 -16 10 -3 6 -2 10 4 10 5 0 13 -4 16 -10z
m-4765 -130 c0 -5 -4 -10 -10 -10 -5 0 -10 5 -10 10 0 6 5 10 10 10 6 0 10 -4
10 -10z m-22 -45 c-6 -14 -15 -25 -20 -25 -11 0 -10 7 2 31 16 28 32 23 18 -6z
m3196 -71 c3 -8 2 -12 -4 -9 -6 3 -10 10 -10 16 0 14 7 11 14 -7z m9 -41 c-7
-2 -19 -2 -25 0 -7 3 -2 5 12 5 14 0 19 -2 13 -5z m36 -89 c-5 -6 -6 -14 -2
-17 3 -4 2 -7 -3 -7 -5 0 -15 9 -21 19 -10 17 -9 19 12 17 16 -1 20 -5 14 -12z
m35 -40 c3 -8 2 -12 -4 -9 -6 3 -10 10 -10 16 0 14 7 11 14 -7z m26 -59 c0 -5
-5 -3 -10 5 -5 8 -10 20 -10 25 0 6 5 3 10 -5 5 -8 10 -19 10 -25z m-35 7 c-3
-3 -11 0 -18 7 -9 10 -8 11 6 5 10 -3 15 -9 12 -12z m60 -50 c3 -8 3 -17 0
-20 -3 -3 -5 0 -5 6 0 7 -4 12 -9 12 -5 0 -7 -9 -4 -21 3 -11 11 -18 17 -16
15 6 39 -20 26 -28 -6 -3 -10 -1 -10 6 0 7 -3 9 -6 6 -4 -4 -1 -13 6 -22 7 -8
9 -15 5 -15 -4 0 -2 -7 5 -15 7 -8 17 -12 23 -8 6 4 8 0 4 -10 -3 -10 -2 -17
4 -17 6 0 8 -4 5 -9 -3 -5 1 -11 9 -15 8 -3 15 -11 14 -18 0 -9 -2 -10 -5 -1
-3 7 -11 10 -19 7 -8 -4 -15 5 -20 25 -4 17 -11 29 -16 25 -5 -3 -9 1 -9 8 0
8 -6 20 -12 27 -7 6 -13 15 -13 19 -1 4 -10 26 -21 48 l-21 42 23 0 c13 0 25
-7 29 -16z m-3515 -36 c-5 -15 -14 -24 -20 -21 -6 4 -4 18 7 38 19 37 29 24
13 -17z m-30 -64 c0 -5 -7 -17 -15 -28 -15 -19 -20 -8 -9 20 6 17 24 22 24 8z
m-32 -74 c-7 -13 -12 -26 -13 -30 0 -3 -3 -10 -7 -14 -13 -12 -9 25 4 46 18
28 32 25 16 -2z m-48 -5 c0 -5 -5 -15 -10 -23 -8 -12 -10 -11 -10 8 0 12 5 22
10 22 6 0 10 -3 10 -7z m3708 -31 c15 12 16 11 3 -4 -14 -19 -32 -15 -30 5 0
8 2 8 6 -1 4 -10 8 -10 21 0z m-3725 -32 c3 -10 0 -18 -5 -17 -16 3 -18 -34
-2 -40 8 -3 14 -9 14 -15 0 -5 -4 -7 -9 -3 -5 3 -12 1 -16 -5 -11 -18 -23 -10
-21 14 3 23 25 86 31 86 1 0 5 -9 8 -20z m3747 10 c0 -5 -5 -10 -11 -10 -5 0
-7 5 -4 10 3 6 8 10 11 10 2 0 4 -4 4 -10z m27 -79 c-10 -12 -9 -13 2 -6 10 5
12 4 7 -4 -4 -6 4 -25 18 -42 15 -17 24 -35 20 -40 -3 -5 -1 -9 4 -9 6 0 12
-7 15 -14 4 -10 1 -13 -9 -9 -7 3 -14 0 -14 -5 0 -6 9 -13 19 -17 13 -4 18
-12 14 -21 -3 -9 0 -14 8 -12 7 2 13 -1 14 -7 0 -5 7 -21 14 -35 l13 -25 -21
23 c-12 12 -26 22 -31 22 -6 0 -9 3 -9 8 4 22 -2 42 -11 37 -15 -9 -39 57 -28
78 8 16 4 21 -15 18 -5 -1 -11 8 -14 19 -3 11 -10 20 -15 20 -5 0 -8 6 -6 12
3 7 -2 19 -9 27 -19 18 -8 27 13 10 16 -13 16 -12 5 11 l-12 25 20 -25 c15
-19 17 -28 8 -39z m-3814 -46 c-3 -9 -8 -14 -10 -11 -3 3 -2 9 2 15 9 16 15
13 8 -4z m3953 -219 c8 -8 10 -17 5 -20 -5 -3 -12 1 -15 10 -3 8 -10 13 -15 9
-5 -3 -12 -1 -16 5 -10 15 25 12 41 -4z m27 -61 c4 -8 1 -14 -5 -12 -6 1 -12
-3 -15 -9 -2 -7 4 -11 14 -10 10 0 19 -6 19 -14 1 -8 2 -21 3 -28 0 -7 6 -10
13 -6 7 5 8 3 4 -5 -5 -7 -1 -20 8 -30 14 -15 14 -20 2 -30 -11 -9 -18 -3 -35
34 -12 25 -18 51 -15 57 4 6 3 8 -3 5 -6 -4 -16 6 -22 24 -9 26 -8 30 4 25 8
-3 15 -1 15 4 0 5 -10 10 -22 12 -12 2 -23 9 -26 16 -6 20 54 -12 61 -33z
m1891 -1 c3 -8 2 -12 -4 -9 -6 3 -10 10 -10 16 0 14 7 11 14 -7z m-1814 -19
c7 -9 8 -15 2 -15 -5 0 -12 7 -16 15 -3 8 -4 15 -2 15 2 0 9 -7 16 -15z m30
-55 c13 -8 13 -10 -2 -10 -9 0 -20 5 -23 10 -8 13 5 13 25 0z m-50 -20 c0 -5
-5 -10 -11 -10 -5 0 -7 5 -4 10 3 6 8 10 11 10 2 0 4 -4 4 -10z m60 -9 c0 -5
-7 -12 -16 -15 -14 -5 -15 -4 -4 9 14 17 20 19 20 6z m24 -57 c3 -9 4 -20 0
-25 -3 -5 2 -9 11 -9 11 0 15 -5 11 -15 -3 -10 1 -15 11 -15 9 0 14 -3 10 -6
-3 -4 1 -13 9 -21 8 -8 12 -23 9 -33 -4 -12 1 -20 17 -24 21 -7 21 -8 5 -15
-18 -7 -18 -8 -1 -21 11 -9 15 -10 10 -2 -4 6 -4 12 1 12 10 -1 43 -71 43 -91
0 -12 -2 -11 -10 1 -6 10 -10 11 -10 3 0 -7 -4 -13 -10 -13 -8 0 -23 29 -52
100 -6 14 -15 34 -21 45 -37 71 -48 98 -52 128 -2 21 11 22 19 1z m2051 -264
c3 -5 1 -10 -4 -10 -6 0 -11 5 -11 10 0 6 2 10 4 10 3 0 8 -4 11 -10z m-1955
-51 c0 -5 -4 -9 -10 -9 -5 0 -10 7 -10 16 0 8 5 12 10 9 6 -3 10 -10 10 -16z
m67 8 c3 -4 5 -32 4 -49 -2 -30 -20 -20 -42 23 l-21 42 29 -8 c15 -3 29 -7 30
-8z m73 -81 c0 -8 -7 -19 -15 -26 -9 -8 -15 -9 -15 -2 0 6 5 14 10 17 6 3 10
11 10 17 0 6 -9 3 -20 -7 -13 -11 -18 -27 -16 -42 3 -13 1 -21 -5 -18 -5 4 -7
10 -4 15 3 4 -1 11 -7 13 -10 4 -10 8 1 15 8 6 11 17 6 32 -5 14 -3 20 3 16 6
-4 8 3 5 16 -4 22 -3 21 21 -5 14 -15 26 -34 26 -41z m1820 54 c0 -5 -2 -10
-4 -10 -3 0 -8 5 -11 10 -3 6 -1 10 4 10 6 0 11 -4 11 -10z m24 -5 c-4 -8 -8
-15 -10 -15 -2 0 -4 7 -4 15 0 8 4 15 10 15 5 0 7 -7 4 -15z m-1814 -100 c0
-19 -36 -39 -45 -25 -8 13 13 40 31 40 8 0 14 -7 14 -15z m10 -34 c0 -6 -4
-13 -10 -16 -5 -3 -10 1 -10 9 0 9 5 16 10 16 6 0 10 -4 10 -9z m2055 -181
c10 -11 14 -20 9 -20 -5 0 -15 9 -22 20 -7 11 -11 20 -9 20 2 0 12 -9 22 -20z
m59 -82 c6 -4 7 -10 3 -15 -10 -9 -27 16 -26 37 1 13 1 13 6 0 3 -8 11 -18 17
-22z m76 -198 c0 -5 -5 -10 -11 -10 -5 0 -7 5 -4 10 3 6 8 10 11 10 2 0 4 -4
4 -10z m33 -55 c20 -42 4 -47 -18 -5 -17 33 -18 40 -7 40 5 0 16 -16 25 -35z
m136 -370 c0 -5 -6 -1 -14 9 -8 11 -15 24 -15 30 0 5 7 1 15 -10 8 -10 14 -23
14 -29z m66 -114 c3 -5 1 -12 -5 -16 -5 -3 -10 1 -10 9 0 18 6 21 15 7z
m-10075 -221 c0 -5 -8 -10 -17 -10 -15 0 -16 2 -3 10 19 12 20 12 20 0z
m10070 -771 c0 -5 -7 -9 -15 -9 -15 0 -20 12 -9 23 8 8 24 -1 24 -14z m-90
-156 c0 -5 -6 -15 -13 -24 -11 -15 -16 -15 -37 -3 -19 10 -21 13 -7 14 9 0 17
5 17 10 0 6 9 10 20 10 11 0 20 -3 20 -7z m-40 -53 c0 -5 -5 -10 -11 -10 -5 0
-7 5 -4 10 3 6 8 10 11 10 2 0 4 -4 4 -10z m-135 -220 c3 -6 0 -13 -8 -16 -8
-3 -38 -34 -67 -70 -53 -63 -70 -76 -70 -51 0 16 74 97 89 97 7 0 10 4 6 9 -6
10 21 41 35 41 5 0 12 -5 15 -10z m-206 -228 c-27 -19 -37 -7 -14 18 14 15 21
17 26 8 5 -7 0 -18 -12 -26z m81 -31 c0 -12 -47 -61 -53 -54 -3 3 6 18 21 34
30 31 32 33 32 20z m-150 -204 c0 -7 -4 -6 -10 3 -8 12 -10 12 -10 1 0 -8 -3
-12 -6 -8 -9 9 6 28 17 22 5 -4 9 -12 9 -18z m-50 -37 c0 -5 -2 -10 -4 -10 -3
0 -8 5 -11 10 -3 6 -1 10 4 10 6 0 11 -4 11 -10z m-455 -500 c3 -6 -1 -7 -9
-4 -18 7 -21 14 -7 14 6 0 13 -4 16 -10z m-41 -64 c-3 -8 -12 -17 -20 -20 -18
-7 -18 -1 2 18 19 20 25 20 18 2z m-39 -56 c-3 -5 -11 -10 -16 -10 -6 0 -7 5
-4 10 3 6 11 10 16 10 6 0 7 -4 4 -10z m-65 -130 c0 -5 -5 -10 -11 -10 -5 0
-7 5 -4 10 3 6 8 10 11 10 2 0 4 -4 4 -10z m-30 -50 c0 -5 -2 -10 -4 -10 -3 0
-8 5 -11 10 -3 6 -1 10 4 10 6 0 11 -4 11 -10z m-299 -433 c-10 -9 -11 -8 -5
6 3 10 9 15 12 12 3 -3 0 -11 -7 -18z m-120 -168 c-8 -22 -10 -22 -16 -5 -5
11 -3 21 6 26 19 12 21 7 10 -21z m-250 -266 c-12 -20 -14 -14 -5 12 4 9 9 14
11 11 3 -2 0 -13 -6 -23z m-41 -94 c0 -5 -4 -9 -9 -9 -5 0 -13 -10 -17 -22 -6
-20 -7 -20 -17 -3 -7 14 -7 20 1 23 7 2 10 7 8 11 -3 4 4 8 15 8 10 1 19 -2
19 -8z m-6130 -33 c0 -2 -7 -6 -15 -10 -8 -3 -15 -1 -15 4 0 6 7 10 15 10 8 0
15 -2 15 -4z m5660 -556 c-20 -13 -33 -13 -25 0 3 6 14 10 23 10 15 0 15 -2 2
-10z m21 -103 c-10 -9 -11 -8 -5 6 3 10 9 15 12 12 3 -3 0 -11 -7 -18z m-111
-62 c0 -17 -2 -18 -25 -9 -13 5 -14 8 -3 15 19 13 28 11 28 -6z m-50 -65 c-6
-11 -12 -20 -14 -20 -2 0 -2 9 1 20 3 11 9 20 15 20 5 0 4 -9 -2 -20z m-70
-96 c0 -7 -6 -11 -13 -8 -8 3 -14 11 -14 18 0 8 6 12 14 9 7 -3 13 -11 13 -19z
m-95 -24 c3 -5 1 -10 -4 -10 -6 0 -11 5 -11 10 0 6 2 10 4 10 3 0 8 -4 11 -10z
m125 -30 c0 -5 -4 -10 -10 -10 -5 0 -10 5 -10 10 0 6 5 10 10 10 6 0 10 -4 10
-10z m-140 -74 c0 -2 -8 -10 -17 -17 -16 -13 -17 -12 -4 4 13 16 21 21 21 13z
m-61 -92 c-10 -13 -10 -17 1 -24 8 -5 11 -12 7 -16 -4 -4 -15 0 -24 9 -13 13
-14 19 -3 31 7 9 17 16 22 16 6 0 5 -7 -3 -16z m-209 -164 c0 -5 -4 -10 -10
-10 -5 0 -10 5 -10 10 0 6 5 10 10 10 6 0 10 -4 10 -10z m0 -34 c0 -3 -4 -8
-10 -11 -5 -3 -10 -1 -10 4 0 6 5 11 10 11 6 0 10 -2 10 -4z m-100 -197 c0 -5
-4 -9 -10 -9 -5 0 -10 7 -10 16 0 8 5 12 10 9 6 -3 10 -10 10 -16z m-213 -193
c0 -8 -6 -12 -15 -9 -11 5 -11 7 0 14 7 5 13 9 14 9 0 0 1 -6 1 -14z m-40 -61
c0 -8 -4 -12 -9 -9 -4 3 -8 9 -8 15 0 5 4 9 8 9 5 0 9 -7 9 -15z m-119 -90
c-8 -19 -14 -22 -19 -13 -5 7 -4 15 1 16 6 2 8 8 4 13 -3 5 2 9 10 9 13 0 14
-4 4 -25z m23 -52 c-8 -15 -10 -15 -11 -2 0 17 10 32 18 25 2 -3 -1 -13 -7
-23z m-57 2 c-4 -8 -12 -15 -20 -15 -8 0 -11 6 -8 15 4 8 12 15 20 15 8 0 11
-6 8 -15z m-39 -55 c-5 -15 -10 -19 -17 -12 -7 7 -6 15 3 25 18 19 23 14 14
-13z m105 -29 c0 -5 -9 -7 -20 -4 -11 3 -20 7 -20 9 0 2 9 4 20 4 11 0 20 -4
20 -9z m-142 -26 c-3 -3 -9 2 -12 12 -6 14 -5 15 5 6 7 -7 10 -15 7 -18z
m-218 -341 c0 -8 -4 -12 -10 -9 -5 3 -10 10 -10 16 0 5 5 9 10 9 6 0 10 -7 10
-16z m-39 -55 c-5 -13 -10 -19 -10 -12 -1 15 10 45 15 40 3 -2 0 -15 -5 -28z
m-38 -60 c-4 -15 -9 -17 -17 -9 -8 8 -7 13 4 20 8 5 16 10 17 10 0 0 -1 -9 -4
-21z m-40 -59 c-5 -19 -23 -29 -23 -12 0 7 20 32 26 32 1 0 0 -9 -3 -20z m-50
-75 c-3 -9 -8 -14 -10 -11 -3 3 -2 9 2 15 9 16 15 13 8 -4z m-63 -5 c0 -5 -5
-10 -11 -10 -5 0 -7 5 -4 10 3 6 8 10 11 10 2 0 4 -4 4 -10z m50 -32 c0 -7 -5
-20 -10 -28 -8 -12 -10 -9 -10 13 0 15 5 27 10 27 6 0 10 -6 10 -12z m-84
-133 c-9 -9 -16 -13 -16 -8 0 12 22 34 28 28 2 -2 -3 -11 -12 -20z m-462 -671
c4 -12 1 -14 -14 -9 -13 4 -20 2 -20 -6 0 -7 -3 -9 -6 -6 -8 7 14 37 26 37 4
0 11 -7 14 -16z m36 6 c0 -5 -4 -10 -10 -10 -5 0 -10 5 -10 10 0 6 5 10 10 10
6 0 10 -4 10 -10z m-85 -49 c3 -5 2 -12 -3 -15 -5 -3 -9 1 -9 9 0 17 3 19 12
6z"/>
<path d="M14120 17940 c0 -5 5 -10 11 -10 5 0 7 5 4 10 -3 6 -8 10 -11 10 -2
0 -4 -4 -4 -10z"/>
<path d="M13687 17933 c-11 -11 -8 -20 8 -20 8 0 15 6 15 14 0 14 -12 17 -23
6z"/>
<path d="M14068 17933 c7 -3 16 -2 19 1 4 3 -2 6 -13 5 -11 0 -14 -3 -6 -6z"/>
<path d="M13913 17914 c-3 -9 0 -20 8 -25 9 -5 15 -4 18 2 2 6 -2 15 -9 19 -9
6 -9 9 1 13 11 4 11 6 1 6 -7 1 -15 -6 -19 -15z"/>
<path d="M13990 17921 c0 -5 -8 -11 -17 -13 -14 -3 -13 -5 5 -10 13 -4 21 -4
18 -1 -3 4 -1 12 5 20 9 9 8 13 0 13 -6 0 -11 -4 -11 -9z"/>
<path d="M13616 17907 c-16 -12 -16 -14 -3 -14 9 0 18 6 21 14 3 7 4 13 3 13
-2 0 -11 -6 -21 -13z"/>
<path d="M13868 17913 c6 -2 18 -2 25 0 6 3 1 5 -13 5 -14 0 -19 -2 -12 -5z"/>
<path d="M13380 17895 c-7 -8 -8 -15 -2 -15 5 0 15 7 22 15 7 8 8 15 2 15 -5
0 -15 -7 -22 -15z"/>
<path d="M13570 17900 c-9 -6 -10 -10 -3 -10 6 0 15 5 18 10 8 12 4 12 -15 0z"/>
<path d="M13777 17897 c-3 -9 7 -13 39 -14 24 -1 44 2 44 7 0 4 -12 7 -27 5
-16 -2 -33 1 -39 6 -8 6 -13 5 -17 -4z"/>
<path d="M13221 17880 c-8 -4 -20 -6 -28 -3 -7 3 -13 0 -13 -6 0 -6 3 -11 8
-12 4 0 43 -2 87 -3 44 -2 80 -4 80 -5 0 -2 10 -4 22 -5 12 -1 20 1 17 5 -2 4
4 10 13 12 10 3 -1 5 -24 6 -23 0 -45 6 -48 11 -4 6 -12 7 -18 3 -15 -10 -70
-10 -77 -1 -3 4 -12 3 -19 -2z"/>
<path d="M13518 17883 c7 -3 16 -2 19 1 4 3 -2 6 -13 5 -11 0 -14 -3 -6 -6z"/>
<path d="M13135 17850 c-3 -5 -2 -10 4 -10 5 0 13 5 16 10 3 6 2 10 -4 10 -5
0 -13 -4 -16 -10z"/>
<path d="M13167 17835 c-3 -7 2 -15 12 -18 10 -2 18 1 18 9 0 18 -24 26 -30 9z"/>
<path d="M13210 17838 c0 -4 6 -8 13 -8 8 0 7 -4 -3 -10 -13 -8 -13 -10 1 -10
13 0 29 18 29 34 0 1 -9 2 -20 2 -11 0 -20 -4 -20 -8z"/>
<path d="M13090 17821 c0 -7 -5 -9 -12 -5 -7 5 -8 3 -3 -5 5 -9 10 -10 18 -2
6 6 8 14 4 18 -4 3 -7 1 -7 -6z"/>
<path d="M13119 17809 c-10 -6 -7 -9 14 -9 29 0 35 5 14 13 -8 3 -20 1 -28 -4z"/>
<path d="M13285 17810 c3 -5 12 -7 20 -3 21 7 19 13 -6 13 -11 0 -18 -4 -14
-10z"/>
<path d="M13366 17811 c-4 -5 3 -7 14 -4 23 6 26 13 6 13 -8 0 -17 -4 -20 -9z"/>
<path d="M13046 17792 c-3 -6 -1 -14 5 -17 15 -10 25 3 12 16 -7 7 -13 7 -17
1z"/>
<path d="M13605 17020 c4 -6 11 -8 16 -5 14 9 11 15 -7 15 -8 0 -12 -5 -9 -10z"/>
<path d="M15090 16610 c0 -5 4 -10 9 -10 6 0 13 5 16 10 3 6 -1 10 -9 10 -9 0
-16 -4 -16 -10z"/>
<path d="M12363 16130 c-3 -11 -9 -20 -14 -20 -5 0 -6 -7 -2 -16 7 -19 18 -8
27 29 7 31 -3 38 -11 7z"/>
<path d="M12329 16052 c-7 -10 -15 -29 -16 -42 -2 -21 1 -18 18 13 22 42 21
57 -2 29z"/>
<path d="M15360 16050 c-8 -5 -10 -10 -5 -10 6 0 17 5 25 10 8 5 11 10 5 10
-5 0 -17 -5 -25 -10z"/>
<path d="M12295 15969 c-4 -6 -5 -12 -2 -15 2 -3 7 2 10 11 7 17 1 20 -8 4z"/>
<path d="M15409 15953 c-13 -15 -12 -15 9 -4 23 12 28 21 13 21 -5 0 -15 -7
-22 -17z"/>
<path d="M11928 15303 c7 -3 16 -2 19 1 4 3 -2 6 -13 5 -11 0 -14 -3 -6 -6z"/>
<path d="M11930 15280 c0 -5 5 -10 11 -10 5 0 7 5 4 10 -3 6 -8 10 -11 10 -2
0 -4 -4 -4 -10z"/>
<path d="M15971 14946 c-8 -10 -9 -16 -1 -21 5 -3 13 1 16 10 9 22 -1 29 -15
11z"/>
<path d="M16307 14463 c-6 -10 19 -34 26 -26 8 7 -3 33 -13 33 -5 0 -11 -3
-13 -7z"/>
<path d="M11729 14424 c-5 -15 -8 -29 -5 -31 2 -2 8 10 14 26 13 38 5 41 -9 5z"/>
<path d="M16307 14367 c-3 -8 1 -14 9 -14 16 0 19 13 5 21 -5 3 -11 0 -14 -7z"/>
<path d="M11697 14364 c-4 -4 -7 -17 -7 -28 1 -19 1 -20 11 -3 11 19 8 43 -4
31z"/>
<path d="M11656 14255 c-9 -26 -7 -32 5 -12 6 10 9 21 6 23 -2 3 -7 -2 -11
-11z"/>
<path d="M16594 13884 c3 -9 6 -18 6 -20 0 -2 7 -4 15 -4 13 0 14 4 5 20 -13
24 -35 27 -26 4z"/>
<path d="M16780 13501 c0 -6 4 -13 10 -16 6 -3 7 1 4 9 -7 18 -14 21 -14 7z"/>
<path d="M16166 14761 c-3 -5 1 -11 9 -15 8 -3 15 -1 15 4 0 13 -18 22 -24 11z"/>
<path d="M14196 20731 c-3 -5 5 -8 18 -7 13 0 22 4 19 9 -6 10 -31 9 -37 -2z"/>
<path d="M15020 19788 c6 -17 13 -34 18 -37 5 -3 12 -15 15 -25 4 -10 10 -17
12 -14 7 6 -32 95 -45 103 -5 3 -5 -8 0 -27z"/>
<path d="M15151 19794 c0 -11 3 -14 6 -6 3 7 2 16 -1 19 -3 4 -6 -2 -5 -13z"/>
<path d="M15146 19713 c-6 -14 -5 -15 5 -6 7 7 10 15 7 18 -3 3 -9 -2 -12 -12z"/>
<path d="M15080 19704 c0 -5 7 -19 15 -30 8 -10 15 -14 15 -8 0 5 -7 19 -15
30 -8 10 -15 14 -15 8z"/>
<path d="M15001 19670 c0 -8 4 -24 8 -34 7 -19 8 -19 15 -1 4 12 1 24 -9 34
-13 13 -15 13 -14 1z"/>
<path d="M15090 19421 c0 -6 4 -11 9 -11 6 0 6 -12 -1 -31 -8 -23 -13 -28 -20
-17 -6 9 -7 5 -2 -12 8 -32 24 -51 35 -44 15 9 10 24 -8 25 -15 0 -15 2 2 9
11 5 14 9 8 9 -7 1 -13 6 -13 11 0 6 3 9 8 9 20 -3 33 2 27 11 -4 6 -11 8 -16
5 -5 -3 -6 0 -3 8 3 8 -2 20 -11 27 -10 8 -15 9 -15 1z"/>
<path d="M15114 19299 c-7 -13 9 -32 31 -35 18 -3 19 5 1 29 -15 20 -22 21
-32 6z"/>
<path d="M19815 18410 c3 -5 8 -10 11 -10 2 0 4 5 4 10 0 6 -5 10 -11 10 -5 0
-7 -4 -4 -10z"/>
<path d="M19810 18371 c0 -6 4 -13 10 -16 6 -3 7 1 4 9 -7 18 -14 21 -14 7z"/>
<path d="M15686 18354 c-11 -7 -17 -17 -13 -20 3 -4 2 -14 -2 -23 -6 -11 -4
-23 6 -36 14 -19 15 -19 12 5 -2 14 3 35 10 48 17 31 10 44 -13 26z"/>
<path d="M15650 18258 c0 -7 4 -19 9 -26 7 -11 9 -11 13 0 3 7 -1 19 -8 26
-11 10 -14 10 -14 0z"/>
<path d="M15706 18252 c-2 -4 4 -14 15 -20 19 -12 19 -11 9 8 -12 22 -16 24
-24 12z"/>
<path d="M15851 17964 c0 -11 3 -14 6 -6 3 7 2 16 -1 19 -3 4 -6 -2 -5 -13z"/>
<path d="M19990 17951 c0 -6 4 -13 10 -16 6 -3 7 1 4 9 -7 18 -14 21 -14 7z"/>
<path d="M15886 17855 c-3 -8 -1 -15 4 -15 6 0 10 7 10 15 0 8 -2 15 -4 15 -2
0 -6 -7 -10 -15z"/>
<path d="M16040 17719 c0 -5 9 -9 20 -9 11 0 20 2 20 4 0 2 -9 6 -20 9 -11 3
-20 1 -20 -4z"/>
<path d="M20285 17560 c-4 -6 -3 -16 3 -22 13 -13 23 4 13 21 -7 10 -10 10
-16 1z"/>
<path d="M16830 16811 c0 -5 7 -11 15 -15 8 -3 15 -1 15 3 0 5 -7 11 -15 15
-8 3 -15 1 -15 -3z"/>
<path d="M21120 16319 c0 -5 5 -7 10 -4 6 3 10 8 10 11 0 2 -4 4 -10 4 -5 0
-10 -5 -10 -11z"/>
<path d="M21067 16273 c3 -7 6 -13 8 -13 2 0 5 6 8 13 3 8 -1 14 -8 14 -7 0
-11 -6 -8 -14z"/>
<path d="M21135 16269 c-4 -6 -5 -12 -2 -15 2 -3 7 2 10 11 7 17 1 20 -8 4z"/>
<path d="M21150 16240 c0 -5 5 -10 11 -10 5 0 7 5 4 10 -3 6 -8 10 -11 10 -2
0 -4 -4 -4 -10z"/>
<path d="M21200 15974 c0 -6 7 -19 16 -30 14 -18 14 -18 3 6 -14 31 -19 36
-19 24z"/>
<path d="M21244 15889 c-3 -6 -2 -15 3 -20 5 -5 9 -1 10 11 2 22 -2 25 -13 9z"/>
<path d="M21326 15798 c3 -5 10 -6 15 -3 13 9 11 12 -6 12 -8 0 -12 -4 -9 -9z"/>
<path d="M21487 15795 c3 -8 9 -12 14 -9 12 7 11 11 -5 17 -10 4 -13 1 -9 -8z"/>
<path d="M21544 15622 c-11 -8 -12 -57 -1 -69 4 -3 7 -14 7 -24 0 -10 5 -21
12 -25 7 -5 8 -3 3 6 -6 9 -4 11 4 6 7 -5 10 -14 7 -22 -3 -8 -1 -14 5 -14 6
0 8 -4 5 -9 -3 -5 1 -11 9 -15 8 -3 15 -11 15 -18 0 -9 -3 -9 -11 2 -9 13 -10
13 -6 0 3 -10 15 -14 33 -13 l29 2 -25 -14 c-21 -12 -23 -15 -8 -20 9 -4 20
-19 23 -35 3 -16 13 -34 21 -41 8 -6 14 -17 14 -25 0 -7 8 -19 18 -26 23 -18
52 -55 33 -44 -9 6 -12 5 -9 -5 3 -8 10 -13 16 -12 6 2 9 -4 6 -12 -4 -9 0
-15 10 -15 20 0 20 19 0 48 -13 19 -14 25 -2 39 11 14 11 16 -3 11 -21 -8 -21
23 0 40 14 12 14 13 -2 8 -10 -3 -15 -2 -12 3 3 5 1 12 -5 16 -5 3 -10 0 -10
-7 0 -10 -2 -10 -9 1 -6 9 -11 10 -15 2 -4 -6 2 -15 15 -19 16 -6 19 -11 10
-16 -14 -9 -54 31 -45 45 3 5 -1 9 -8 10 -7 0 -4 4 7 9 19 8 19 9 -4 9 -20 1
-22 4 -16 28 3 15 12 31 18 35 8 4 7 11 -2 22 -11 13 -16 14 -29 4 -13 -11
-15 -10 -9 6 6 15 5 17 -7 7 -17 -14 -29 8 -16 29 12 20 1 40 -18 32 -13 -4
-15 -3 -6 9 18 25 4 62 -21 52 -8 -3 -15 -1 -15 5 0 6 6 13 13 15 6 3 8 6 2 6
-5 0 -15 -3 -21 -7z m36 -44 c0 -4 -4 -8 -9 -8 -6 0 -12 4 -15 8 -3 5 1 9 9 9
8 0 15 -4 15 -9z"/>
<path d="M21665 15400 c-8 -13 5 -13 25 0 13 8 13 10 -2 10 -9 0 -20 -4 -23
-10z"/>
<path d="M21780 15175 c-7 -8 -9 -22 -6 -32 4 -9 1 -21 -6 -26 -10 -6 -8 -7 4
-4 17 6 42 -15 31 -26 -3 -4 1 -7 11 -7 9 0 15 -4 12 -9 -5 -7 15 -21 29 -21
13 0 -27 67 -46 78 -22 13 -22 13 -3 9 17 -4 22 0 22 19 0 14 -5 27 -11 31 -6
3 -7 1 -3 -5 3 -6 -3 -16 -14 -22 -12 -6 -20 -7 -20 -1 0 5 6 11 13 14 6 2 9
7 6 11 -3 4 -12 0 -19 -9z"/>
<path d="M21860 15040 c-8 -5 -11 -12 -8 -16 4 -3 14 1 23 10 18 17 9 21 -15
6z"/>
<path d="M21966 14875 c-3 -9 0 -15 9 -15 16 0 20 16 6 24 -5 3 -11 -1 -15 -9z"/>
<path d="M22215 14750 c-3 -6 1 -7 9 -4 18 7 21 14 7 14 -6 0 -13 -4 -16 -10z"/>
<path d="M22444 14384 c3 -8 6 -18 6 -20 0 -2 5 -4 10 -4 16 0 11 27 -6 34
-12 5 -15 2 -10 -10z"/>
<path d="M18555 14240 c-3 -5 1 -10 10 -10 9 0 13 5 10 10 -3 6 -8 10 -10 10
-2 0 -7 -4 -10 -10z"/>
<path d="M18601 14214 c0 -11 3 -14 6 -6 3 7 2 16 -1 19 -3 4 -6 -2 -5 -13z"/>
<path d="M18516 14184 c-3 -8 -2 -12 4 -9 6 3 10 -1 10 -10 0 -8 11 -20 25
-25 16 -6 25 -17 25 -30 0 -34 17 -14 18 22 1 22 -2 28 -8 18 -8 -12 -10 -12
-15 2 -4 10 -3 23 1 30 6 10 4 10 -9 -1 -15 -12 -17 -11 -17 3 0 20 -26 21
-34 0z"/>
<path d="M18600 14086 c0 -8 5 -18 10 -21 6 -3 10 3 10 14 0 12 -4 21 -10 21
-5 0 -10 -6 -10 -14z"/>
<path d="M18715 14030 c-7 -12 20 -60 34 -60 4 0 16 10 27 23 l19 22 -23 -20
c-24 -20 -24 -20 -38 0 -8 11 -12 25 -10 32 6 16 0 17 -9 3z"/>
<path d="M18766 13951 c-4 -6 1 -22 12 -36 14 -18 22 -21 31 -12 6 6 11 16 11
22 0 5 -4 4 -9 -4 -7 -11 -12 -8 -23 14 -10 18 -18 24 -22 16z"/>
<path d="M18816 13884 c-3 -8 -2 -13 3 -9 5 3 12 -1 14 -7 3 -7 6 -3 6 10 1
25 -14 30 -23 6z"/>
<path d="M18710 13860 c-13 -8 -12 -10 3 -10 9 0 17 5 17 10 0 12 -1 12 -20 0z"/>
<path d="M18762 13741 c4 -13 18 -16 19 -4 0 4 -5 9 -11 12 -7 2 -11 -2 -8 -8z"/>
<path d="M22885 13700 c3 -5 11 -10 16 -10 6 0 7 5 4 10 -3 6 -11 10 -16 10
-6 0 -7 -4 -4 -10z"/>
<path d="M18840 13640 c0 -5 5 -10 10 -10 6 0 10 -7 10 -15 0 -9 6 -12 15 -9
17 7 12 20 -16 34 -13 7 -19 7 -19 0z"/>
<path d="M23035 13029 c-4 -6 -5 -12 -2 -15 2 -3 7 2 10 11 7 17 1 20 -8 4z"/>
<path d="M23066 12895 c4 -8 10 -15 15 -15 5 0 9 7 9 15 0 8 -7 15 -15 15 -9
0 -12 -6 -9 -15z"/>
<path d="M22800 12193 c0 -10 4 -14 8 -8 4 6 11 13 16 18 5 4 2 7 -7 7 -10 0
-17 -8 -17 -17z"/>
<path d="M22675 12139 c-4 -6 -5 -12 -2 -15 2 -3 7 2 10 11 7 17 1 20 -8 4z"/>
<path d="M22770 12125 c0 -8 2 -15 4 -15 2 0 6 7 10 15 3 8 1 15 -4 15 -6 0
-10 -7 -10 -15z"/>
<path d="M22485 12050 c-4 -7 -2 -16 6 -21 18 -11 23 -4 11 17 -7 12 -11 13
-17 4z"/>
<path d="M22565 11990 c4 -6 11 -8 16 -5 14 9 11 15 -7 15 -8 0 -12 -5 -9 -10z"/>
<path d="M22419 11970 c-1 -5 -2 -16 -3 -22 -1 -7 -5 -17 -11 -21 -7 -6 -6
-10 2 -13 6 -3 9 -16 7 -31 -4 -23 -2 -25 21 -19 20 5 25 3 25 -13 0 -13 -5
-18 -14 -15 -8 3 -17 0 -21 -5 -3 -6 -10 -9 -15 -6 -5 3 -11 2 -13 -3 -3 -4
13 -7 36 -7 30 0 42 5 42 15 0 8 6 20 14 26 10 8 11 13 3 18 -7 4 -12 4 -12
-1 0 -4 -5 -1 -10 7 -7 12 -12 12 -22 2 -17 -17 -33 -15 -18 3 7 8 21 15 31
15 11 0 19 5 19 11 0 7 -11 9 -27 5 -16 -3 -22 -3 -15 0 6 3 12 12 12 20 0 9
-5 12 -12 8 -8 -5 -9 0 -6 14 4 12 2 22 -3 22 -5 0 -10 -4 -10 -10z"/>
<path d="M22496 11914 c-8 -21 -8 -24 5 -24 5 0 7 5 4 10 -3 6 -1 10 4 10 6 0
11 5 11 10 0 16 -17 12 -24 -6z"/>
<path d="M22600 11917 c0 -7 4 -18 9 -25 7 -11 9 -11 14 2 4 9 8 19 9 23 2 3
-5 7 -14 9 -10 1 -18 -3 -18 -9z"/>
<path d="M22400 11785 c0 -8 4 -15 9 -15 5 0 11 7 15 15 3 9 0 15 -9 15 -8 0
-15 -7 -15 -15z"/>
<path d="M22210 11630 c5 -10 6 -20 3 -24 -8 -8 11 -8 31 0 9 3 16 16 16 28
-1 21 -1 21 -15 2 -12 -15 -15 -16 -15 -5 0 9 -7 16 -14 16 -11 0 -12 -5 -6
-17z"/>
<path d="M22160 11626 c0 -2 7 -7 16 -10 8 -3 12 -2 9 4 -6 10 -25 14 -25 6z"/>
<path d="M22196 11571 c-18 -20 -30 -61 -17 -61 8 0 28 37 29 54 0 5 6 13 14
17 7 5 8 9 2 9 -6 0 -18 -8 -28 -19z"/>
<path d="M22150 11505 c0 -8 4 -15 10 -15 5 0 7 7 4 15 -4 8 -8 15 -10 15 -2
0 -4 -7 -4 -15z"/>
<path d="M21998 11387 c-9 -7 -13 -18 -10 -24 5 -7 12 -2 19 13 6 13 10 24 10
24 -1 0 -10 -6 -19 -13z"/>
<path d="M21950 11340 c-7 -18 -5 -49 3 -41 5 5 7 17 4 27 -3 11 -6 17 -7 14z"/>
<path d="M21980 11330 c-13 -8 -12 -10 3 -10 9 0 17 5 17 10 0 12 -1 12 -20 0z"/>
<path d="M21800 11101 c0 -5 5 -13 10 -16 6 -3 10 -2 10 4 0 5 -4 13 -10 16
-5 3 -10 2 -10 -4z"/>
<path d="M17656 10793 c-6 -14 -5 -15 5 -6 7 7 10 15 7 18 -3 3 -9 -2 -12 -12z"/>
<path d="M17105 10057 c-12 -9 -14 -16 -7 -21 6 -3 16 3 22 14 13 24 10 25
-15 7z"/>
<path d="M16980 9929 c0 -6 -9 -9 -20 -6 -11 3 -18 1 -14 -4 9 -15 44 -10 44
6 0 8 -2 15 -5 15 -3 0 -5 -5 -5 -11z"/>
<path d="M16930 9840 c-7 -10 -18 -18 -24 -17 -6 1 -10 -4 -8 -10 1 -7 -2 -13
-6 -13 -4 0 -8 -10 -9 -22 -2 -22 -2 -22 9 -3 14 26 44 55 51 49 2 -3 7 2 10
10 9 23 -8 27 -23 6z"/>
<path d="M16857 9773 c-10 -9 -9 -23 1 -23 5 0 9 7 9 15 0 17 -1 18 -10 8z"/>
<path d="M16897 9700 c-9 -11 -13 -20 -9 -20 4 0 -2 -7 -12 -15 -11 -8 -18
-17 -15 -19 7 -7 33 16 52 47 20 31 10 36 -16 7z"/>
<path d="M16727 9559 c4 -13 8 -18 11 -10 2 7 -1 18 -6 23 -8 8 -9 4 -5 -13z"/>
<path d="M16632 9350 c0 -14 2 -19 5 -12 2 6 2 18 0 25 -3 6 -5 1 -5 -13z"/>
<path d="M16419 9043 c-13 -16 -12 -17 4 -4 9 7 17 15 17 17 0 8 -8 3 -21 -13z"/>
<path d="M14448 6606 c-36 -49 -68 -118 -53 -112 8 3 15 1 15 -5 0 -6 5 -7 11
-3 7 4 7 10 1 16 -13 13 -3 40 11 31 6 -4 8 0 4 10 -3 10 -2 17 4 17 6 0 8 4
5 9 -3 5 1 14 9 21 8 7 15 9 15 4 0 -11 20 18 20 29 0 16 -26 5 -42 -17z"/>
<path d="M12945 2330 c3 -5 8 -10 11 -10 2 0 4 5 4 10 0 6 -5 10 -11 10 -5 0
-7 -4 -4 -10z"/>
<path d="M12918 2313 c7 -3 16 -2 19 1 4 3 -2 6 -13 5 -11 0 -14 -3 -6 -6z"/>
<path d="M13895 1260 c3 -5 8 -10 11 -10 2 0 4 5 4 10 0 6 -5 10 -11 10 -5 0
-7 -4 -4 -10z"/>
<path d="M20940 9656 c0 -2 8 -10 18 -17 15 -13 16 -12 3 4 -13 16 -21 21 -21
13z"/>
</g>
</svg>
