<?xml version="1.0" standalone="no"?>
<!DOCTYPE svg PUBLIC "-//W3C//DTD SVG 20010904//EN"
 "http://www.w3.org/TR/2001/REC-SVG-20010904/DTD/svg10.dtd">
<svg version="1.0" xmlns="http://www.w3.org/2000/svg"
 width="300.000000pt" height="300.000000pt" viewBox="0 0 300.000000 300.000000"
 preserveAspectRatio="xMidYMid meet">
<metadata>
Created by potrace 1.14, written by Peter Selinger 2001-2017
</metadata>
<g transform="translate(0.000000,300.000000) scale(0.100000,-0.100000)"
fill="#000000" stroke="none">
<path d="M1038 2698 c-27 -43 -1033 -1812 -1033 -1817 0 -7 449 -269 456 -265
3 2 41 83 84 181 43 98 81 181 85 186 4 4 60 -22 125 -58 65 -36 120 -65 122
-65 2 0 43 -22 92 -50 l88 -50 6 -142 c4 -79 7 -190 7 -248 l0 -105 204 -117
c111 -65 211 -120 221 -124 18 -7 18 5 12 332 -4 186 -7 735 -7 1219 l-1 880
-176 105 c-97 58 -197 117 -223 133 l-48 27 -14 -22z m18 -1416 c-3 -2 -24 7
-48 20 -24 14 -75 44 -115 67 l-72 41 75 163 c42 89 94 202 117 251 l42 90 3
-314 c1 -172 0 -315 -2 -318z"/>
<path d="M1940 1597 l0 -338 63 36 c34 19 88 50 120 67 31 18 57 37 57 41 0 8
-126 288 -214 477 l-26 55 0 -338z"/>
<path d="M2265 930 c-49 -27 -91 -53 -92 -57 -3 -9 360 -264 366 -257 8 7
-162 364 -173 364 -6 -1 -51 -23 -101 -50z"/>
</g>
</svg>
